<?xml version="1.0" encoding="utf-8"?>
<!-- Generator: Adobe Adobe Illustrator 29.2.0, SVG Export Plug-In . SVG Version: 6.00 Build 0)  -->
<svg version="1.1" id="Layer_1" xmlns="http://www.w3.org/2000/svg" xmlns:xlink="http://www.w3.org/1999/xlink" x="0px" y="0px"
	 viewBox="0 0 800 800" style="enable-background:new 0 0 800 800;" xml:space="preserve">
<style type="text/css">
	.st0{fill:#575756;}
	.st1{fill:#FF4C4C;}
</style>
<path class="st0" d="M272.46,206.15c-0.91-2.2-2.8-3.51-4.35-3.13c0.9,0.72,1.91,2.19,2.68,4.04c0.67,1.62,1,3.15,1,4.28
	C273.01,210.42,273.33,208.25,272.46,206.15z"/>
<path class="st0" d="M261.49,201.22l6.19,22.89c0.08,0.31-0.33,0.5-0.51,0.23c-1.55-2.4-4.6-7.32-6.37-11.42
	c-0.76-1.76-0.99-3.69-0.66-5.57c0.28-1.59,0.6-3.81,0.7-6.05C260.86,200.92,261.39,200.85,261.49,201.22z"/>
<path class="st0" d="M260.66,216.09v5.49c0,2.11,1.14,4.06,2.99,5.09c0.57,0.32,1.23,0.61,1.95,0.82c0.54,0.16,1.02-0.4,0.8-0.92
	c-0.8-1.85-2.54-5.71-5.07-10.64C261.15,215.61,260.66,215.73,260.66,216.09z"/>
<path class="st0" d="M258,213.64l-2.17,9.25c-0.29,1.23-0.43,2.48-0.43,3.74l0,0c0,0.92,0.98,1.52,1.79,1.09l0,0
	c1.11-0.59,1.78-1.76,1.73-3.01l-0.42-11.03C258.49,213.4,258.07,213.36,258,213.64z"/>
<path class="st0" d="M256.25,215.02c-1.55,1.74-5.33,4.97-13.39,7.35c-0.64,0.19-0.7,1.07-0.1,1.34c1.57,0.71,4.12,1.73,7.15,2.42
	c1.56,0.35,3.16-0.48,3.8-1.95c0.83-1.91,2-4.92,3.07-8.86C256.87,214.99,256.47,214.77,256.25,215.02z"/>
<path class="st0" d="M213.26,243.18c-0.11,0.64-0.23,1.4-0.34,2.28c-0.55,4.33-0.56,8.72-0.05,13.06c0.2,1.68,0.38,3.71,0.37,5.51
	c0,0.78,0.96,1.15,1.48,0.56l4.05-4.55c0.47-0.53,0.55-1.3,0.19-1.92c-1.33-2.28-4.39-8.17-5.05-14.9
	C213.87,242.84,213.33,242.8,213.26,243.18z"/>
<path class="st0" d="M218.74,303.8c1.07,1.57,2.83,4.43,3.76,7.39c0.2,0.63,1.11,0.59,1.25-0.06c0.43-1.86,0.9-4.31,0.94-6.17
	c0.03-1.58,0.11-3.16,0.34-4.73c0.5-3.45,1.34-8.02,3.26-12.2c0.68-1.49,1.71-3.28,2.31-4.97c0.44-1.24,1.45-3.62-0.03-4.38
	c0,0-5.72,13.93-11.81,22.64C218.23,302.07,218.23,303.05,218.74,303.8z"/>
<path class="st0" d="M232.5,255.95c-0.28,7.63-0.37,25.92,4.35,36.76c0.23,0.53,1.01,0.45,1.14-0.11c0.72-3.04,1.99-9.61,0.73-13.78
	c-0.55-1.82-1.12-3.64-1.53-5.5l-3.78-17.45C233.3,255.34,232.52,255.41,232.5,255.95z"/>
<path class="st0" d="M239.88,268.5c1.25,1.38,3.75,3.18,8.68,4.5c0.61,0.16,0.76,0.96,0.25,1.32c-1.18,0.82-3.26,1.82-6.24,1.52
	c-3.14-0.32-3.86-4.14-3.98-6.8C238.56,268.33,239.41,267.98,239.88,268.5z"/>
<path class="st0" d="M239.56,277.36c0.45,1.01,1.04,2.39,1.35,3.41c0.18,0.58,0.79,0.89,1.36,0.67c1.34-0.51,3.6-1.64,5.35-3.88
	c0.26-0.34-0.03-0.83-0.45-0.75c-1.7,0.31-4.92,0.73-7.01-0.06C239.76,276.6,239.39,276.98,239.56,277.36z"/>
<path class="st0" d="M236.6,344.73c-0.24-0.73-1.28-0.71-1.48,0.03c-0.84,3.07-2.17,8.79-2.53,15.31c0,0-0.9,9.57-2.47,14.98
	c-0.98,3.35-1.58,6.81-1.55,10.3c0,0.05,0,0.11,0,0.16c0.02,1.03,1.49,1.21,1.78,0.22l2.6-9.19c1.04-3.69,2.19-7.34,3.46-10.96
	c0.02-0.06,0.04-0.13,0.07-0.19c2.29-6.61,2.37-13.79,0.2-20.44L236.6,344.73z"/>
<path class="st0" d="M268.22,385.43l0.19,0.14c1.42,1.02,2.36,2.6,2.55,4.34c0.33,2.99,0.59,8.06-0.42,13.77l-3.94,24.93
	c-0.07,0.42-0.66,0.42-0.73,0.01c-0.02-0.13-0.04-0.27-0.07-0.41c-1.01-6.23-1.1-12.58-0.25-18.84c0.62-4.57,1.24-12.61-0.07-22.3
	C265.3,385.57,266.99,384.54,268.22,385.43z"/>
<path class="st0" d="M245.41,350.1l2.7,4.25c0.26,0.4,0.39,0.87,0.39,1.35v5.59c0,0.61-0.83,0.8-1.09,0.25
	c-0.95-2.04-2.24-5.7-2.77-11.17C244.61,349.93,245.18,349.73,245.41,350.1z"/>
<path class="st0" d="M250.79,357.37l1.79,2.22c0.83,1.03,1.28,2.32,1.26,3.64c-0.04,2.11-0.44,5.41-2.25,8.45
	c-0.28,0.47-1,0.33-1.1-0.21c-0.41-2.36-1.11-7.44-0.88-13.71C249.63,357.15,250.41,356.89,250.79,357.37z"/>
<path class="st0" d="M256.65,364.65c0.13,0.13,0.27,0.27,0.41,0.41c1.55,1.55,2.19,3.8,1.68,5.93c-0.68,2.85-1.91,6.8-3.93,9.42
	c-0.48,0.62-1.48,0.34-1.6-0.44l-0.73-4.88c-0.11-0.76,0.03-1.53,0.42-2.19c0.9-1.51,2.51-4.62,2.65-7.83
	C255.6,364.52,256.26,364.26,256.65,364.65z"/>
<path class="st0" d="M260.3,458.47c0-0.25-0.35-0.31-0.43-0.07c-0.72,2.12-2.28,6.33-4.37,9.53c-0.28,0.42-0.09,0.99,0.37,1.19l0,0
	c0.55,0.24,0.86,0.83,0.74,1.42c-0.14,0.66-0.34,1.6-0.56,2.64c-0.09,0.43,0.49,0.66,0.71,0.28l1.9-3.18
	c1.07-1.78,1.63-3.81,1.63-5.89V458.47z"/>
<path class="st1" d="M256.32,487.02c0.09,2.03,0.39,5.36,1.36,8.71c1.37,4.71,2.21,9.57,2.17,14.47c-0.03,3.87-0.39,8.33-1.49,12.52
	c-0.32,1.21-1.78,1.71-2.78,0.95c-2.5-1.89-6.29-6.52-6.23-17.16c0,0-0.72-9.99,5.79-19.82
	C255.47,486.17,256.29,486.39,256.32,487.02z"/>
<path class="st1" d="M252.09,522.32c0.78,1.08,1.9,2.3,3.36,3.11c0.79,0.44,1.18,1.36,0.95,2.24c-0.07,0.25-0.14,0.53-0.21,0.82
	c-1.06,4.06-1.85,8.19-2.35,12.36l-0.58,4.83c-0.06,0.52-0.81,0.53-0.88,0.02c-0.52-3.57-1.29-10.66-1.63-22.91
	C250.73,522.05,251.66,521.73,252.09,522.32z"/>
<path class="st1" d="M238.33,471.66c-0.02-0.78-1.06-0.99-1.4-0.29c-1.33,2.74-3.07,7.97-2.38,15.9c0,0,2.44,35.67,12.48,60.43
	c0.34,0.84,1.6,0.5,1.46-0.4l-7.82-52.54C240.67,494.75,238.63,482.52,238.33,471.66z"/>
<path class="st1" d="M233.72,490.39c-0.18-0.74-1.28-0.59-1.24,0.17c0.38,9.09,1.93,31.17,8.2,46.67c0,0,3.7,10.94,4.88,17.62
	c0.08,0.47,0.77,0.45,0.82-0.03c0.16-1.69,0.17-3.86-0.47-5.7l-3.15-10.16l-1.99-7.53c-2.43-9.19-4.67-18.47-5.75-27.91
	C234.44,498.48,234.81,494.76,233.72,490.39z"/>
<path class="st1" d="M231.51,500.36c-0.1-0.54-0.9-0.45-0.88,0.1c0.24,5.24,1.12,14.44,4.1,26.07c0,0,3.36,17.05,4.42,25.78
	c0.05,0.44,0.7,0.42,0.73-0.03c0.16-3.23,0.09-8.12-1.11-13.63C238.77,538.66,233.73,511.85,231.51,500.36z"/>
<path class="st0" d="M275.08,206.15c0.91-2.2,2.8-3.51,4.35-3.13c-0.9,0.72-1.91,2.19-2.68,4.04c-0.67,1.62-1,3.15-1,4.28
	C274.53,210.42,274.21,208.25,275.08,206.15z"/>
<path class="st0" d="M286.05,201.22l-6.19,22.89c-0.08,0.31,0.33,0.5,0.51,0.23c1.55-2.4,4.6-7.32,6.37-11.42
	c0.76-1.76,0.99-3.69,0.66-5.57c-0.28-1.59-0.6-3.81-0.7-6.05C286.68,200.92,286.15,200.85,286.05,201.22z"/>
<path class="st0" d="M286.88,216.09v5.49c0,2.11-1.14,4.06-2.99,5.09c-0.57,0.32-1.23,0.61-1.95,0.82c-0.54,0.16-1.02-0.4-0.8-0.92
	c0.8-1.85,2.54-5.71,5.07-10.64C286.39,215.61,286.88,215.73,286.88,216.09z"/>
<path class="st0" d="M289.54,213.64l2.17,9.25c0.29,1.23,0.43,2.48,0.43,3.74l0,0c0,0.92-0.98,1.52-1.79,1.09l0,0
	c-1.11-0.59-1.78-1.76-1.73-3.01l0.42-11.03C289.05,213.4,289.47,213.36,289.54,213.64z"/>
<path class="st0" d="M291.29,215.02c1.55,1.74,5.33,4.97,13.39,7.35c0.64,0.19,0.7,1.07,0.1,1.34c-1.57,0.71-4.12,1.73-7.15,2.42
	c-1.56,0.35-3.16-0.48-3.8-1.95c-0.83-1.91-2-4.92-3.07-8.86C290.67,214.99,291.07,214.77,291.29,215.02z"/>
<g id="Delts">
	<path class="st0" d="M248.35,228.3c-1.7-0.66-4.42-1.92-8.43-4.29c-1.36-0.8-2.95-1.11-4.51-0.86
		c-5.05,0.82-15.96,3.88-19.27,15.24c-0.33,1.13-0.49,2.31-0.49,3.49v0.07c0,2.27,0.57,4.51,1.69,6.48
		c1.12,1.97,2.49,4.69,3.05,7.09c0.25,1.06,1.44,1.59,2.37,1.02c1.31-0.8,3.03-2.08,4.58-3.99c1.9-2.33,2.97-5.23,3.21-8.22
		c0.34-4.22,2.77-13.58,17.65-15.14C248.69,229.14,248.8,228.48,248.35,228.3z"/>
	<path class="st0" d="M299.19,228.3c1.7-0.66,4.42-1.92,8.43-4.29c1.36-0.8,2.95-1.11,4.51-0.86c5.05,0.82,15.96,3.88,19.27,15.24
		c0.33,1.13,0.49,2.31,0.49,3.49v0.07c0,2.27-0.57,4.51-1.69,6.48c-1.12,1.97-2.49,4.69-3.05,7.09c-0.25,1.06-1.44,1.59-2.37,1.02
		c-1.31-0.8-3.03-2.08-4.58-3.99c-1.9-2.33-2.97-5.23-3.21-8.22c-0.34-4.22-2.77-13.58-17.65-15.14
		C298.85,229.14,298.74,228.48,299.19,228.3z"/>
</g>
<path class="st0" d="M334.28,243.18c0.11,0.64,0.23,1.4,0.34,2.28c0.55,4.33,0.56,8.72,0.05,13.06c-0.2,1.68-0.38,3.71-0.37,5.51
	c0,0.78-0.96,1.15-1.48,0.56l-4.05-4.55c-0.47-0.53-0.55-1.3-0.19-1.92c1.33-2.28,4.39-8.17,5.05-14.9
	C333.66,242.84,334.21,242.8,334.28,243.18z"/>
<g id="Biceps">
	<path class="st0" d="M221.97,259.94c0.23-0.42-0.31-0.84-0.65-0.51c-3.86,3.73-11.95,12.83-12.13,23.76
		c-0.16,9.92,1.48,16.16,2.51,19.08c0.13,0.37,0.67,0.26,0.65-0.13C212.02,296.1,212.04,277.75,221.97,259.94z"/>
	<path class="st0" d="M228.77,252.85c0.64-0.87,2.02-0.52,2.12,0.56c0.53,5.73,1.25,18.55-2.1,25.16
		c-3.33,6.57-9.59,16.95-12.43,21.61c-0.44,0.73-1.56,0.42-1.57-0.43C214.71,292.11,215.77,270.5,228.77,252.85z"/>
	<path class="st0" d="M325.57,259.94c-0.23-0.42,0.31-0.84,0.65-0.51c3.86,3.73,11.95,12.83,12.13,23.76
		c0.16,9.92-1.48,16.16-2.51,19.08c-0.13,0.37-0.67,0.26-0.65-0.13C335.52,296.1,335.5,277.75,325.57,259.94z"/>
	<path class="st0" d="M318.77,252.85c-0.64-0.87-2.02-0.52-2.12,0.56c-0.53,5.73-1.25,18.55,2.1,25.16
		c3.33,6.57,9.59,16.95,12.43,21.61c0.44,0.73,1.56,0.42,1.57-0.43C332.83,292.11,331.77,270.5,318.77,252.85z"/>
</g>
<path class="st0" d="M328.8,303.8c-1.07,1.57-2.83,4.43-3.76,7.39c-0.2,0.63-1.11,0.59-1.25-0.06c-0.43-1.86-0.9-4.31-0.94-6.17
	c-0.03-1.58-0.11-3.16-0.34-4.73c-0.5-3.45-1.34-8.02-3.26-12.2c-0.68-1.49-1.71-3.28-2.31-4.97c-0.44-1.24-1.45-3.62,0.03-4.38
	c0,0,5.72,13.93,11.81,22.64C329.31,302.07,329.31,303.05,328.8,303.8z"/>
<g id="Forearms">
	<path class="st0" d="M208.77,296.82c-0.34-1.39-2.11-1.84-3.05-0.76c-3.2,3.68-9.01,13.25-8.66,34.07c0,0,0.28,17.04-0.39,25.09
		c-0.03,0.35,0.46,0.45,0.57,0.12C200.6,345.5,212.02,310.28,208.77,296.82z"/>
	<path class="st0" d="M217.43,306.11c0.57,1.2,1.08,2.91,0.84,4.91c-0.11,0.91-0.43,1.78-0.84,2.6c-1.56,3.1-7.29,15.19-16.66,42.19
		c-0.12,0.35-0.64,0.22-0.57-0.14c2.11-10.88,8.36-40.87,14.62-49.78C215.48,304.94,216.93,305.07,217.43,306.11z"/>
	<path class="st0" d="M218.86,315.02c0.39-0.92,1.71-0.92,2.07,0.01c0.78,1.98,1.37,5.26-0.46,9.4c0,0-12.64,27.87-15.83,35.46
		c-0.13,0.32-0.6,0.19-0.57-0.15C204.58,355.44,207.03,343.02,218.86,315.02z"/>
	<path class="st0" d="M338.77,296.82c0.34-1.39,2.11-1.84,3.05-0.76c3.2,3.68,9.01,13.25,8.66,34.07c0,0-0.28,17.04,0.39,25.09
		c0.03,0.35-0.46,0.45-0.57,0.12C346.94,345.5,335.52,310.28,338.77,296.82z"/>
	<path class="st0" d="M330.11,306.11c-0.57,1.2-1.08,2.91-0.84,4.91c0.11,0.91,0.43,1.78,0.84,2.6c1.56,3.1,7.29,15.19,16.66,42.19
		c0.12,0.35,0.64,0.22,0.57-0.14c-2.11-10.88-8.36-40.87-14.62-49.78C332.06,304.94,330.61,305.07,330.11,306.11z"/>
	<path class="st0" d="M328.68,315.02c-0.39-0.92-1.71-0.92-2.07,0.01c-0.78,1.98-1.37,5.26,0.46,9.4c0,0,12.64,27.87,15.83,35.46
		c0.13,0.32,0.6,0.19,0.57-0.15C342.96,355.44,340.51,343.02,328.68,315.02z"/>
</g>
<g id="Chest">
	<path class="st0" d="M262.01,230.03c-7.71-0.38-25.03,0.07-28.89,11.16c-0.84,2.43-0.83,5.07-0.18,7.55
		c1.64,6.21,6.84,21.93,17.64,23.17c5,0.57,8.91,0.39,11.84-0.06c4.28-0.66,7.64-4.02,8.32-8.29c1.22-7.64,2.38-20.91-2.26-29.47
		C267.2,231.7,264.73,230.16,262.01,230.03z"/>
	<path class="st0" d="M285.53,230.03c7.71-0.38,25.03,0.07,28.89,11.16c0.84,2.43,0.83,5.07,0.17,7.55
		c-1.64,6.21-6.84,21.93-17.64,23.17c-5,0.57-8.91,0.39-11.84-0.06c-4.28-0.66-7.64-4.02-8.32-8.29
		c-1.22-7.64-2.38-20.91,2.26-29.47C280.34,231.7,282.81,230.16,285.53,230.03z"/>
</g>
<path class="st0" d="M315.04,255.95c0.28,7.63,0.37,25.92-4.35,36.76c-0.23,0.53-1.01,0.45-1.14-0.11
	c-0.72-3.04-1.99-9.61-0.73-13.78c0.55-1.82,1.12-3.64,1.53-5.5l3.78-17.45C314.24,255.34,315.02,255.41,315.04,255.95z"/>
<path class="st0" d="M307.66,268.5c-1.25,1.38-3.75,3.18-8.68,4.5c-0.61,0.16-0.76,0.96-0.25,1.32c1.18,0.82,3.26,1.82,6.24,1.52
	c3.14-0.32,3.86-4.14,3.98-6.8C308.98,268.33,308.13,267.98,307.66,268.5z"/>
<path class="st0" d="M307.98,277.36c-0.45,1.01-1.04,2.39-1.35,3.41c-0.18,0.58-0.79,0.89-1.36,0.67c-1.34-0.51-3.6-1.64-5.35-3.88
	c-0.26-0.34,0.04-0.83,0.45-0.75c1.7,0.31,4.92,0.73,7.01-0.06C307.78,276.6,308.15,276.98,307.98,277.36z"/>
<g id="Abbs">
	<path class="st0" d="M271.9,282.51c0.03-2-0.12-5.77-1.49-8.72c-0.42-0.92-1.43-1.43-2.43-1.27l-7.69,1.22
		c-2.16,0.34-4.17,1.43-5.47,3.18c-0.78,1.04-1.36,2.37-1.32,4l0.37,11.11c0.04,1.31,1.53,2.05,2.59,1.28
		c3-2.15,8.36-5.8,14.19-8.81C271.4,284.12,271.89,283.36,271.9,282.51z"/>
	<path class="st0" d="M272.39,291.29v9.61c0,1.53-0.57,3.03-1.69,4.07c-0.53,0.49-1.16,0.88-1.87,0.92c0,0-5.16,0.09-10.23,1.53
		c-1.69,0.48-3.51-0.22-4.46-1.7c-0.61-0.95-1.06-2.22-0.92-3.86c0.08-0.93,0.48-1.79,1.09-2.48c2.33-2.62,9.22-9.97,14.05-11.25
		C270.4,287.59,272.39,289.18,272.39,291.29z"/>
	<path class="st0" d="M253.5,318.01c0,1.35,0.41,2.7,1.28,3.73c0.87,1.03,2.31,1.97,4.66,1.97h6.53c1.14,0,2.28-0.16,3.35-0.56
		c1.46-0.53,3.07-1.54,3.07-3.37v-8.16c0,0,0-4.06-4.16-4.06c0,0-14.74,0.81-14.74,6.16V318.01z"/>
	<path class="st0" d="M253.76,327.58c1.07,7.95,5.57,36.39,16.1,43.87c1.06,0.75,2.53-0.05,2.53-1.36v-37.64
		c0-1.01-0.43-2-1.21-2.64c-0.71-0.58-1.55-1.48-1.97-2.7c-0.32-0.93-1.22-1.53-2.2-1.46c-2.52,0.17-7.11,0.37-11.46,0.05
		C254.49,325.62,253.62,326.52,253.76,327.58z"/>
	<path class="st0" d="M242.82,283.99c1.54-0.96,4.81-3.09,6.34-4.8c0.34-0.38,0.96-0.24,1.08,0.26c0.35,1.45,0.77,3.84,0.39,5.72
		c-0.31,1.52-1.78,2.49-3.3,2.17c-1.34-0.28-3.17-0.87-4.62-2.11C242.31,284.9,242.38,284.26,242.82,283.99z"/>
	<path class="st0" d="M243.29,288.02c1.08,0.73,3.07,1.87,5.2,2.16c0.95,0.13,1.71,0.85,1.81,1.81c0.13,1.14,0.23,2.66,0.14,4.04
		c-0.08,1.15-1.2,1.92-2.29,1.54c-3.12-1.1-8.96-3.63-8.64-7.12c0,0,0.16-1.48,1.6-2.44C241.77,287.56,242.63,287.57,243.29,288.02z
		"/>
	<path class="st0" d="M241.37,296.17l8.79,4.86c0.38,0.21,0.62,0.61,0.62,1.05v7.15c0,0.99-1.13,1.55-1.92,0.96l-7.73-5.84
		c-0.75-0.57-1.27-1.39-1.46-2.32c-0.25-1.25-0.46-3.14-0.06-5.06C239.78,296.18,240.67,295.79,241.37,296.17z"/>
	<path class="st0" d="M241.93,307.6l7.36,5.76c0.78,0.61,1.24,1.55,1.24,2.54v2.51c0,2.06-2.43,3.16-3.98,1.8l-5.94-5.23
		c-0.73-0.64-1.15-1.57-1.15-2.54v-3.63C239.45,307.53,240.93,306.81,241.93,307.6z"/>
	<path class="st0" d="M237.76,317.73c0.24-1.19,1.68-1.68,2.59-0.88l6.26,5.44c0,0,5.23,4.52,5.23,13.9v10.06
		c0,2.73-3.32,4.07-5.21,2.1l-8-8.32c-1.12-1.16-1.63-2.79-1.35-4.38c0.17-1,0.51-2.03,1.14-2.66c1.06-1.06,0.94-2.63,0.34-3.81
		c-0.87-1.72-1.47-3.57-1.51-5.5C237.2,322.01,237.31,319.97,237.76,317.73z"/>
	<path class="st0" d="M275.64,282.51c-0.03-2,0.12-5.77,1.49-8.72c0.42-0.92,1.43-1.43,2.43-1.27l7.69,1.22
		c2.16,0.34,4.17,1.43,5.47,3.18c0.78,1.04,1.36,2.37,1.32,4l-0.37,11.11c-0.04,1.31-1.53,2.05-2.59,1.28
		c-3-2.15-8.36-5.8-14.19-8.81C276.14,284.12,275.65,283.36,275.64,282.51z"/>
	<path class="st0" d="M275.15,291.29v9.61c0,1.53,0.57,3.03,1.69,4.07c0.53,0.49,1.16,0.88,1.87,0.92c0,0,5.16,0.09,10.23,1.53
		c1.69,0.48,3.51-0.22,4.46-1.7c0.61-0.95,1.06-2.22,0.92-3.86c-0.08-0.93-0.48-1.79-1.09-2.48c-2.33-2.62-9.22-9.97-14.05-11.25
		C277.14,287.59,275.15,289.18,275.15,291.29z"/>
	<path class="st0" d="M294.04,318.01c0,1.35-0.41,2.7-1.28,3.73c-0.87,1.03-2.31,1.97-4.66,1.97h-6.53c-1.14,0-2.28-0.16-3.35-0.56
		c-1.46-0.53-3.07-1.54-3.07-3.37v-8.16c0,0,0-4.06,4.16-4.06c0,0,14.74,0.81,14.74,6.16V318.01z"/>
	<path class="st0" d="M293.78,327.58c-1.07,7.95-5.57,36.39-16.1,43.87c-1.06,0.75-2.53-0.05-2.53-1.36v-37.64
		c0-1.01,0.43-2,1.21-2.64c0.71-0.58,1.55-1.48,1.97-2.7c0.32-0.93,1.22-1.53,2.2-1.46c2.52,0.17,7.11,0.37,11.46,0.05
		C293.05,325.62,293.92,326.52,293.78,327.58z"/>
	<path class="st0" d="M304.72,283.99c-1.54-0.96-4.81-3.09-6.34-4.8c-0.34-0.38-0.96-0.24-1.08,0.26c-0.35,1.45-0.77,3.84-0.39,5.72
		c0.31,1.52,1.78,2.49,3.3,2.17c1.34-0.28,3.17-0.87,4.62-2.11C305.23,284.9,305.16,284.26,304.72,283.99z"/>
	<path class="st0" d="M304.25,288.02c-1.08,0.73-3.07,1.87-5.2,2.16c-0.95,0.13-1.71,0.85-1.81,1.81c-0.13,1.14-0.23,2.66-0.14,4.04
		c0.08,1.15,1.2,1.92,2.29,1.54c3.12-1.1,8.96-3.63,8.64-7.12c0,0-0.16-1.48-1.6-2.44C305.77,287.56,304.91,287.57,304.25,288.02z"
		/>
	<path class="st0" d="M306.17,296.17l-8.79,4.86c-0.38,0.21-0.62,0.61-0.62,1.05v7.15c0,0.99,1.13,1.55,1.92,0.96l7.73-5.84
		c0.75-0.57,1.27-1.39,1.46-2.32c0.25-1.25,0.46-3.14,0.06-5.06C307.76,296.18,306.87,295.79,306.17,296.17z"/>
	<path class="st0" d="M305.61,307.6l-7.36,5.76c-0.78,0.61-1.24,1.55-1.24,2.54v2.51c0,2.06,2.43,3.16,3.98,1.8l5.94-5.23
		c0.73-0.64,1.15-1.57,1.15-2.54v-3.63C308.09,307.53,306.61,306.81,305.61,307.6z"/>
	<path class="st0" d="M309.78,317.73c-0.24-1.19-1.68-1.68-2.59-0.88l-6.26,5.44c0,0-5.23,4.52-5.23,13.9v10.06
		c0,2.73,3.32,4.07,5.21,2.1l8-8.32c1.12-1.16,1.63-2.79,1.35-4.38c-0.17-1-0.51-2.03-1.14-2.66c-1.06-1.06-0.94-2.63-0.34-3.81
		c0.87-1.72,1.47-3.57,1.51-5.5C310.34,322.01,310.23,319.97,309.78,317.73z"/>
</g>
<path class="st0" d="M310.94,344.73c0.24-0.73,1.28-0.71,1.48,0.03c0.84,3.07,2.17,8.79,2.53,15.31c0,0,0.9,9.57,2.47,14.98
	c0.98,3.35,1.58,6.81,1.55,10.3c0,0.05,0,0.11,0,0.16c-0.02,1.03-1.5,1.21-1.78,0.22l-2.6-9.19c-1.04-3.69-2.19-7.34-3.46-10.96
	c-0.02-0.06-0.04-0.13-0.07-0.19c-2.29-6.61-2.37-13.79-0.2-20.44L310.94,344.73z"/>
<path class="st0" d="M279.32,385.43l-0.19,0.14c-1.42,1.02-2.36,2.6-2.55,4.34c-0.33,2.99-0.59,8.06,0.42,13.77l3.94,24.93
	c0.07,0.42,0.66,0.42,0.73,0.01c0.02-0.13,0.04-0.27,0.07-0.41c1.01-6.23,1.1-12.58,0.25-18.84c-0.62-4.57-1.24-12.61,0.07-22.3
	C282.24,385.57,280.55,384.54,279.32,385.43z"/>
<path class="st0" d="M302.13,350.1l-2.7,4.25c-0.26,0.4-0.39,0.87-0.39,1.35v5.59c0,0.61,0.83,0.8,1.09,0.25
	c0.95-2.04,2.24-5.7,2.77-11.17C302.93,349.93,302.36,349.73,302.13,350.1z"/>
<path class="st0" d="M296.75,357.37l-1.79,2.22c-0.83,1.03-1.28,2.32-1.26,3.64c0.04,2.11,0.44,5.41,2.25,8.45
	c0.28,0.47,1,0.33,1.1-0.21c0.41-2.36,1.11-7.44,0.88-13.71C297.9,357.15,297.13,356.89,296.75,357.37z"/>
<path class="st0" d="M290.89,364.65c-0.13,0.13-0.27,0.27-0.41,0.41c-1.55,1.55-2.19,3.8-1.68,5.93c0.68,2.85,1.91,6.8,3.93,9.42
	c0.48,0.62,1.48,0.34,1.6-0.44l0.73-4.88c0.11-0.76-0.03-1.53-0.42-2.19c-0.9-1.51-2.51-4.62-2.65-7.83
	C291.94,364.52,291.28,364.26,290.89,364.65z"/>
<g id="Quads">
	<path class="st0" d="M241.21,348.06l0.22,0.26c0.52,0.63,0.91,1.37,1.15,2.15l8.55,28.19c1.41,4.66,2.95,9.28,4.59,13.86
		c3.15,8.84,9.04,28.21,7.62,46.09c-0.03,0.36-0.56,0.39-0.61,0.02c-0.88-6.09-3.64-21.86-10.26-38.18c0,0-10.04-27.9-12.73-51.78
		C239.64,347.86,240.68,347.42,241.21,348.06z"/>
	<path class="st0" d="M240.47,363.89c-0.2-0.97-1.56-1.01-1.82-0.06c-2,7.38-6.11,24.4-6.24,40.03c0,0,0.18,13.55,2.32,18.71
		l8.29,20.25c0.75,1.84,3.29,2.02,4.28,0.29c0.93-1.64,1.86-3.73,2.28-6.1c0,0,2.03-8.2,3.14-16.61c0.9-6.84,0.17-13.8-2.03-20.34
		C247.85,391.67,243.21,377.03,240.47,363.89z"/>
	<path class="st0" d="M230.25,388.87L230.25,388.87c-0.92,2.71-1.6,7.25-1.52,10.11l0.61,22.87c0.17,6.36,1.33,12.66,3.47,18.66
		c1.61,4.51,3.71,9.65,6.06,13.52c0.3,0.49,1.04,0.34,1.13-0.23c0.34-2.2,0.86-6.28,0.62-9.49c-0.22-2.81-2.83-9.45-4.85-14.22
		c-2.13-5.03-3.58-10.31-4.27-15.72c-0.72-5.64-1.17-13.09-0.33-21.03l0.48-4.15C231.74,388.33,230.52,388.06,230.25,388.87z"/>
	<path class="st0" d="M255.55,415.85c1.89,6.87,5.93,22.65,5.84,31.54c-0.02,2.48-0.97,4.86-2.64,6.69l-2.46,2.71
		c-1.14,1.25-3.13,1.35-4.28,0.11c-0.52-0.56-1.01-1.38-1.41-2.59c-0.48-1.45-0.72-3.23-0.82-5c-0.23-4.02,0.32-8.05,1.44-11.92
		c1.29-4.49,3.24-12.63,3.42-21.42C254.64,415.43,255.4,415.33,255.55,415.85z"/>
	<path class="st0" d="M306.33,348.06l-0.22,0.26c-0.52,0.63-0.91,1.37-1.15,2.15l-8.55,28.19c-1.41,4.66-2.95,9.28-4.59,13.86
		c-3.15,8.84-9.04,28.21-7.62,46.09c0.03,0.36,0.56,0.39,0.61,0.02c0.88-6.09,3.64-21.86,10.26-38.18c0,0,10.04-27.9,12.73-51.78
		C307.9,347.86,306.86,347.42,306.33,348.06z"/>
	<path class="st0" d="M307.07,363.89c0.2-0.97,1.56-1.01,1.82-0.06c2,7.38,6.11,24.4,6.24,40.03c0,0-0.18,13.55-2.32,18.71
		l-8.29,20.25c-0.75,1.84-3.29,2.02-4.28,0.29c-0.93-1.64-1.86-3.73-2.28-6.1c0,0-2.04-8.2-3.14-16.61
		c-0.9-6.84-0.17-13.8,2.03-20.34C299.69,391.67,304.33,377.03,307.07,363.89z"/>
	<path class="st0" d="M317.29,388.87L317.29,388.87c0.92,2.71,1.6,7.25,1.52,10.11l-0.61,22.87c-0.17,6.36-1.33,12.66-3.47,18.66
		c-1.61,4.51-3.71,9.65-6.06,13.52c-0.3,0.49-1.04,0.34-1.13-0.23c-0.34-2.2-0.86-6.28-0.62-9.49c0.22-2.81,2.83-9.45,4.85-14.22
		c2.13-5.03,3.58-10.31,4.27-15.72c0.72-5.64,1.17-13.09,0.33-21.03l-0.48-4.15C315.8,388.33,317.02,388.06,317.29,388.87z"/>
	<path class="st0" d="M291.99,415.85c-1.89,6.87-5.93,22.65-5.84,31.54c0.02,2.48,0.97,4.86,2.64,6.69l2.46,2.71
		c1.14,1.25,3.13,1.35,4.28,0.11c0.52-0.56,1.01-1.38,1.41-2.59c0.48-1.45,0.72-3.23,0.82-5c0.23-4.02-0.32-8.05-1.44-11.92
		c-1.29-4.49-3.24-12.63-3.42-21.42C292.9,415.43,292.13,415.33,291.99,415.85z"/>
</g>
<path class="st0" d="M287.24,458.47c0-0.25,0.35-0.31,0.43-0.07c0.72,2.12,2.28,6.33,4.37,9.53c0.28,0.42,0.09,0.99-0.37,1.19l0,0
	c-0.55,0.24-0.86,0.83-0.74,1.42c0.14,0.66,0.34,1.6,0.56,2.64c0.09,0.43-0.49,0.66-0.71,0.28l-1.9-3.18
	c-1.07-1.78-1.63-3.81-1.63-5.89V458.47z"/>
<path class="st1" d="M291.22,487.02c-0.09,2.03-0.39,5.36-1.36,8.71c-1.37,4.71-2.21,9.57-2.17,14.47
	c0.03,3.87,0.39,8.33,1.49,12.52c0.32,1.21,1.78,1.71,2.78,0.95c2.5-1.89,6.29-6.52,6.23-17.16c0,0,0.72-9.99-5.79-19.82
	C292.07,486.17,291.25,486.39,291.22,487.02z"/>
<path class="st1" d="M295.45,522.32c-0.78,1.08-1.9,2.3-3.36,3.11c-0.79,0.44-1.18,1.36-0.95,2.24c0.07,0.25,0.14,0.53,0.21,0.82
	c1.06,4.06,1.85,8.19,2.35,12.36l0.58,4.83c0.06,0.52,0.81,0.53,0.88,0.02c0.52-3.57,1.29-10.66,1.63-22.91
	C296.81,522.05,295.88,521.73,295.45,522.32z"/>
<path class="st1" d="M309.21,471.66c0.02-0.78,1.06-0.99,1.4-0.29c1.33,2.74,3.07,7.97,2.38,15.9c0,0-2.44,35.67-12.48,60.43
	c-0.34,0.84-1.6,0.5-1.46-0.4l7.82-52.54C306.87,494.75,308.91,482.52,309.21,471.66z"/>
<path class="st1" d="M313.82,490.39c0.18-0.74,1.28-0.59,1.24,0.17c-0.38,9.09-1.93,31.17-8.2,46.67c0,0-3.7,10.94-4.88,17.62
	c-0.08,0.47-0.77,0.45-0.82-0.03c-0.17-1.69-0.17-3.86,0.47-5.7l3.15-10.16l1.99-7.53c2.43-9.19,4.67-18.47,5.75-27.91
	C313.1,498.48,312.73,494.76,313.82,490.39z"/>
<path class="st1" d="M316.03,500.36c0.1-0.54,0.9-0.45,0.88,0.1c-0.24,5.24-1.12,14.44-4.1,26.07c0,0-3.36,17.05-4.42,25.78
	c-0.05,0.44-0.7,0.42-0.73-0.03c-0.16-3.23-0.09-8.12,1.11-13.63C308.77,538.66,313.8,511.85,316.03,500.36z"/>
<path class="st0" d="M484.95,385.03c-1.48,7.23-2.76,22.9,3.85,49.81c0.26,1.07,1.83,0.91,1.86-0.19l0.7-25.62
	c0.1-3.65-0.49-7.27-1.69-10.72c-1.23-3.53-2.71-8.5-3.21-13.19C486.37,384.24,485.13,384.17,484.95,385.03z"/>
<path class="st0" d="M513.37,395.32c2.07-0.3,5.15-0.85,7.6-1.77c1.45-0.54,3.03,0.31,3.42,1.81c0.65,2.51,1.1,6.4-0.39,10.87
	c0,0-1.96,4.9-1.72,9.28c0.07,1.26,0.09,2.52-0.05,3.77c-0.22,1.97-0.63,4.87-1.32,7.38c-0.3,1.11-1.92,0.95-2.01-0.19
	c-0.49-5.66-1.81-15.64-5.27-21.97c-0.42-0.78-0.84-1.55-1.18-2.37c-0.42-1.01-0.95-2.38-1.25-3.7
	C510.85,396.97,511.88,395.53,513.37,395.32z"/>
<path class="st0" d="M517.39,428.7c0.08,0.58,0.16,1.19,0.23,1.82c0.59,4.91,0.45,9.88-0.36,14.76c-0.59,3.55-1.38,8.73-1.88,13.81
	c0,0-0.87,9.48-2.22,15.1c-0.3,1.24-2.06,1.25-2.39,0.02c-1.27-4.74-2.79-13.49,0.35-21.51c0,0,3.73-9.06,4.94-23.95
	C516.13,427.95,517.28,427.91,517.39,428.7z"/>
<path class="st0" d="M496.05,341.57c-1.1,1.62-2.61,4.32-3.72,8.1c-0.44,1.5,1.24,2.74,2.55,1.89c3.47-2.24,8.97-5.66,13.93-8.15
	c1.22-0.61,1.09-2.42-0.21-2.83c-1.66-0.53-4.4-0.96-8.94-0.92C498.22,339.68,496.86,340.38,496.05,341.57z"/>
<path class="st0" d="M494.22,314.84l-1.48,4.3c-0.16,0.46,0.35,0.86,0.76,0.6l2.66-1.72c0.21-0.14,0.29-0.41,0.19-0.64l-1.18-2.58
	C494.97,314.37,494.37,314.4,494.22,314.84z"/>
<path class="st0" d="M497.07,320.41l0.58,1.4c0.13,0.32,0.1,0.68-0.09,0.96c-0.73,1.11-2.66,4.07-4.26,6.79
	c-0.54,0.91-1.93,0.53-1.93-0.53v-3.26c0-0.16,0.03-0.31,0.1-0.45c0.35-0.73,1.64-3.18,3.94-5.3
	C495.94,319.55,496.8,319.75,497.07,320.41z"/>
<path class="st0" d="M500.48,326.04l1.91,3.16c0.89,1.47,0.91,3.37-0.1,4.76c-0.65,0.88-1.67,1.57-3.28,1.38
	c-1.58-0.18-3.19,0.24-4.57,0.82c-1.29,0.54-2.57-0.81-1.98-2.07c1.08-2.33,2.65-5.31,4.73-8.18
	C498.02,324.76,499.75,324.83,500.48,326.04z"/>
<path class="st0" d="M525.9,298.61v47.41c0,1.27-1.43,1.99-2.46,1.26c-1.55-1.1-3.37-2.82-3.93-5.15
	c-0.76-3.16-7.36-6.42-10.84-7.94c-0.95-0.41-1.19-1.64-0.47-2.39c1.52-1.56,3.53-4.15,3.53-6.89c0,0,0.11-8.73,2.25-14.58
	c0,0,2.05-8.65,9.8-12.98C524.73,296.84,525.9,297.53,525.9,298.61z"/>
<path class="st0" d="M519.68,202.99c-0.05-0.44-0.68-0.48-0.78-0.05c-0.68,2.83-2.88,7.62-5.17,11.04c-0.55,0.83,0.49,1.8,1.28,1.19
	C517.67,213.11,520.46,209.39,519.68,202.99z"/>
<path class="st0" d="M483.36,253.65c-0.45-2.13,1.97-3.69,3.7-2.37c1.75,1.33,3.8,3.2,5.64,5.69c2.17,2.94,5.37,4.49,8.03,5.31
	c1.76,0.54,1.74,3.01-0.03,3.53c-1.94,0.56-4.47,0.84-7.6,0.3c-2.83-0.49-5.3-2.17-6.73-4.66
	C485.26,259.49,484.03,256.8,483.36,253.65z"/>
<path class="st0" d="M484.79,244.85c0.61,0.97,1.54,2.46,2.24,3.72c0.27,0.48-0.27,1.01-0.75,0.73l-2.36-1.38
	c-0.58-0.34-0.92-0.97-0.85-1.64c0.04-0.4,0.12-0.86,0.27-1.28C483.58,244.36,484.44,244.28,484.79,244.85z"/>
<path class="st0" d="M490.1,239.63l4.07-2.76c0.15-0.1,0.29-0.19,0.45-0.27c1.1-0.56,5.17-2.3,7.04,1.66
	c0.26,0.55,0.41,1.15,0.52,1.75l2.3,13.04c0,0,0.47,3.86,1.97,6.4c0.45,0.76-0.12,1.74-1,1.68c-1.52-0.09-3.95-0.7-7.53-2.85
	c-7.03-4.2-8.93-10.25-8.93-10.25s-0.26-0.64-0.67-1.47C487.1,244.13,487.84,241.16,490.1,239.63z"/>
<path class="st0" d="M474.68,310.2c0.61-0.85,1.48-1.94,2.6-3.12c0.81-0.86,2.26-0.25,2.21,0.93c-0.08,1.99-0.27,4.6-0.71,6.74
	c-0.29,1.4-1.98,2.02-3.07,1.1c-0.38-0.31-0.75-0.7-1.08-1.15C473.67,313.36,473.71,311.54,474.68,310.2z"/>
<path class="st0" d="M462.97,303.4c-0.5-0.9-1.84-0.66-2.02,0.35c-0.35,1.98-0.46,4.93,0.74,8.32c0,0,1.36,3.41,2.21,6.23
	c0.29,0.95,1.63,0.99,1.97,0.05c0.66-1.85,1.29-4.12,1.12-5.71C466.76,310.57,464.47,306.12,462.97,303.4z"/>
<path class="st0" d="M454.02,331.06c-1.06,7.01-2.97,20.76-3.15,30.3c-0.01,0.69,0.97,0.82,1.13,0.15
	c1.39-5.92,3.57-17.54,3.03-30.39C455,330.51,454.11,330.45,454.02,331.06z"/>
<path class="st0" d="M460.33,314.1c0.68,2.53,1.52,5.56,2.19,7.6c0.46,1.39,0.67,2.86,0.62,4.33c-0.14,4.21-0.67,12.75-2.62,18.53
	c-1.61,4.77-3.43,11.58-4.63,16.28c-0.14,0.54-0.93,0.4-0.89-0.15l3.75-46.44C458.82,313.34,460.09,313.22,460.33,314.1z"/>
<path class="st0" d="M469.95,319.37c0.01-0.03,0.02-0.06,0.02-0.09c0.34-1.26,1.73-1.95,2.91-1.4c1.01,0.47,2.11,1.22,2.89,2.44
	c1.19,1.88,1.09,4.31-0.06,6.22c-0.98,1.64-2.55,4.79-4.13,10.1c-0.52,1.75-1.15,3.47-1.85,5.16l-9.59,23.01
	c-0.25,0.6-1.15,0.33-1.03-0.31l4.76-25.74c0,0,1.5-9.26,3.85-13.81C468.64,323.17,469.41,321.31,469.95,319.37z"/>
<g id="Calfs">
	<path class="st1" d="M492.9,531.34c0.58,2.77,1.36,6.18,2.01,8.03c0.46,1.28,0.87,2.57,1.18,3.9c0.67,2.82,1.63,7.21,1.92,10.34
		c0.04,0.44-0.57,0.57-0.72,0.16l-3.02-8.72c0,0-1.85-5.04-2.21-13.59C492.06,530.94,492.8,530.83,492.9,531.34z"/>
	<path class="st1" d="M508.5,539.35l-0.23,5.41c-0.11,2.48-0.44,4.95-0.98,7.37l-0.62,2.74c-0.11,0.47-0.8,0.39-0.79-0.1
		c0.11-3.64,0.53-9.52,1.97-15.51C507.94,538.88,508.52,538.96,508.5,539.35z"/>
	<path class="st1" d="M505.04,473.46l3.03,3.99c1.38,1.82,2.26,3.96,2.55,6.22l2.86,22.24c0.31,2.38,0.41,4.78,0.23,7.16
		c-0.13,1.77-0.42,3.72-1,5.38c0,0-0.95,3.15-1.86,6.88c-0.4,1.62-2.29,2.33-3.68,1.4c-1.49-0.99-3.26-2.57-4.68-5
		c-0.78-1.35-1.17-2.89-1.12-4.44c0.16-4.99,0.59-18.17,0.77-23.89c0.05-1.61,0.15-3.21,0.28-4.82c0.2-2.5,0.46-6.57,0.15-8.49
		c-0.25-1.57-0.02-4.08,0.23-6.06C502.96,472.95,504.37,472.57,505.04,473.46z"/>
	<path class="st1" d="M493.66,468.65l-0.69,1.06c-1.92,2.93-3.15,6.27-3.5,9.76c-0.17,1.68-0.5,3.71-1.15,5.88
		c-1.43,4.78-2.12,9.75-1.91,14.73c0.15,3.55,0.6,7.43,1.66,10.66l2.61,8.75c0.6,2.02,3.21,2.56,4.56,0.94l2.55-3.06
		c1.11-1.33,1.78-2.97,1.92-4.7c0.33-4.06,0.87-11.8,0.65-16.35c-0.1-2.05-0.16-4.1-0.13-6.16l0.18-13.52c0,0,0.02-4.17-3.39-8.2
		C496.1,467.39,494.42,467.48,493.66,468.65z"/>
	<path class="st1" d="M562.51,531.34c-0.58,2.77-1.36,6.18-2.01,8.03c-0.46,1.28-0.87,2.57-1.18,3.9
		c-0.67,2.82-1.63,7.21-1.92,10.34c-0.04,0.44,0.57,0.57,0.72,0.16l3.02-8.72c0,0,1.85-5.04,2.21-13.59
		C563.35,530.94,562.61,530.83,562.51,531.34z"/>
	<path class="st1" d="M546.92,539.35l0.23,5.41c0.11,2.48,0.44,4.95,0.98,7.37l0.62,2.74c0.11,0.47,0.8,0.39,0.79-0.1
		c-0.11-3.64-0.53-9.52-1.97-15.51C547.47,538.88,546.9,538.96,546.92,539.35z"/>
	<path class="st1" d="M550.37,473.46l-3.03,3.99c-1.38,1.82-2.26,3.96-2.55,6.22l-2.86,22.24c-0.31,2.38-0.41,4.78-0.23,7.16
		c0.13,1.77,0.42,3.72,1,5.38c0,0,0.95,3.15,1.86,6.88c0.4,1.62,2.29,2.33,3.68,1.4c1.49-0.99,3.26-2.57,4.68-5
		c0.78-1.35,1.17-2.89,1.12-4.44c-0.16-4.99-0.59-18.17-0.77-23.89c-0.05-1.61-0.15-3.21-0.28-4.82c-0.2-2.5-0.46-6.57-0.15-8.49
		c0.25-1.57,0.02-4.08-0.23-6.06C552.46,472.95,551.05,472.57,550.37,473.46z"/>
	<path class="st1" d="M561.75,468.65l0.7,1.06c1.92,2.93,3.15,6.27,3.5,9.76c0.17,1.68,0.5,3.71,1.15,5.88
		c1.43,4.78,2.12,9.75,1.91,14.73c-0.15,3.55-0.6,7.43-1.66,10.66l-2.61,8.75c-0.6,2.02-3.21,2.56-4.56,0.94l-2.55-3.06
		c-1.11-1.33-1.78-2.97-1.92-4.7c-0.33-4.06-0.87-11.8-0.65-16.35c0.1-2.05,0.16-4.1,0.13-6.16l-0.18-13.52c0,0-0.02-4.17,3.39-8.2
		C559.31,467.39,560.99,467.48,561.75,468.65z"/>
</g>
<path class="st0" d="M570.46,385.03c1.48,7.23,2.76,22.9-3.85,49.81c-0.26,1.07-1.83,0.91-1.86-0.19l-0.7-25.62
	c-0.1-3.65,0.49-7.27,1.69-10.72c1.23-3.53,2.71-8.5,3.21-13.19C569.05,384.24,570.29,384.17,570.46,385.03z"/>
<g id="Hamstrings">
	<path class="st0" d="M489.88,467.51c-0.41-4.6-0.62-12.4,1.96-16.86c1.12-1.94,1.45-4.24,1.05-6.44c-0.01-0.04-0.01-0.07-0.02-0.11
		c-0.33-1.77-0.43-3.58-0.36-5.38l0.87-22.13c0,0-0.21-14.71,5.45-19.94c2.47-2.29,6.57-0.59,6.52,2.78
		c-0.01,0.64-0.11,1.35-0.35,2.13c0,0-2.65,13.01-3.63,44.05c0,0-0.35,4.84-2.25,7.95l-7.17,14.34
		C491.46,468.89,489.97,468.61,489.88,467.51z"/>
	<path class="st0" d="M506.73,400.23c-0.61,3.62-1.33,8.79-1.43,13.3c-0.09,3.74-0.38,7.47-0.76,11.19l-1.1,10.84
		c0,0-2.33,21.3,1.37,32.43c0.45,1.36,2.47,0.99,2.42-0.44c-0.24-6.5-0.03-17.6,3.29-26.08c0,0,5.18-16.07,4.84-23.32
		c-0.23-4.83-3.59-13.21-5.82-18.28C508.95,398.53,506.97,398.78,506.73,400.23z"/>
	<path class="st0" d="M565.54,467.51c0.41-4.6,0.62-12.4-1.96-16.86c-1.12-1.94-1.45-4.24-1.05-6.44c0.01-0.04,0.01-0.07,0.02-0.11
		c0.33-1.77,0.43-3.58,0.36-5.38l-0.87-22.13c0,0,0.21-14.71-5.45-19.94c-2.47-2.29-6.57-0.59-6.52,2.78
		c0.01,0.64,0.11,1.35,0.35,2.13c0,0,2.65,13.01,3.63,44.05c0,0,0.35,4.84,2.25,7.95l7.17,14.34
		C563.95,468.89,565.44,468.61,565.54,467.51z"/>
	<path class="st0" d="M548.68,400.23c0.61,3.62,1.33,8.79,1.43,13.3c0.09,3.74,0.38,7.47,0.76,11.19l1.1,10.84
		c0,0,2.33,21.3-1.37,32.43c-0.45,1.36-2.47,0.99-2.42-0.44c0.24-6.5,0.03-17.6-3.29-26.08c0,0-5.18-16.07-4.84-23.32
		c0.23-4.83,3.59-13.21,5.82-18.28C546.46,398.53,548.44,398.78,548.68,400.23z"/>
</g>
<path class="st0" d="M542.04,395.32c-2.07-0.3-5.15-0.85-7.6-1.77c-1.45-0.54-3.03,0.31-3.42,1.81c-0.65,2.51-1.1,6.4,0.39,10.87
	c0,0,1.96,4.9,1.72,9.28c-0.07,1.26-0.09,2.52,0.05,3.77c0.22,1.97,0.63,4.87,1.32,7.38c0.3,1.11,1.92,0.95,2.01-0.19
	c0.49-5.66,1.81-15.64,5.27-21.97c0.43-0.78,0.84-1.55,1.18-2.37c0.42-1.01,0.95-2.38,1.25-3.7
	C544.57,396.97,543.54,395.53,542.04,395.32z"/>
<path class="st0" d="M538.02,428.7c-0.08,0.58-0.16,1.19-0.23,1.82c-0.59,4.91-0.45,9.88,0.36,14.76c0.59,3.55,1.38,8.73,1.88,13.81
	c0,0,0.87,9.48,2.22,15.1c0.3,1.24,2.06,1.25,2.39,0.02c1.27-4.74,2.79-13.49-0.35-21.51c0,0-3.73-9.06-4.94-23.95
	C539.28,427.95,538.13,427.91,538.02,428.7z"/>
<path class="st0" d="M559.36,341.57c1.1,1.62,2.61,4.32,3.72,8.1c0.44,1.5-1.24,2.74-2.55,1.89c-3.47-2.24-8.97-5.66-13.93-8.15
	c-1.22-0.61-1.09-2.42,0.21-2.83c1.66-0.53,4.4-0.96,8.94-0.92C557.2,339.68,558.55,340.38,559.36,341.57z"/>
<g id="Glutes">
	<path class="st0" d="M516.84,345.3c1.08,0.81,2.27,1.79,3.44,2.94c3.61,3.51,5.62,8.35,5.62,13.38v19.35c0,3.93-2.1,7.59-5.54,9.49
		c-2.8,1.54-6.6,2.91-11.31,2.91c-6.46,0-11.52-4.93-14.54-8.89c-2.06-2.69-3.14-6.01-3.14-9.39v-12.34c0-3.39,1.3-6.7,3.74-9.05
		c0.67-0.65,1.45-1.28,2.38-1.87l10.98-6.88C511.06,343.33,514.39,343.47,516.84,345.3z"/>
	<path class="st0" d="M538.58,345.3c-1.08,0.81-2.27,1.79-3.44,2.94c-3.61,3.51-5.62,8.35-5.62,13.38v19.35
		c0,3.93,2.1,7.59,5.54,9.49c2.8,1.54,6.6,2.91,11.31,2.91c6.46,0,11.52-4.93,14.54-8.89c2.06-2.69,3.14-6.01,3.14-9.39v-12.34
		c0-3.39-1.3-6.7-3.74-9.05c-0.67-0.65-1.45-1.28-2.38-1.87l-10.98-6.88C544.35,343.33,541.03,343.47,538.58,345.3z"/>
</g>
<path class="st0" d="M561.2,314.84l1.48,4.3c0.16,0.46-0.35,0.86-0.76,0.6l-2.66-1.72c-0.21-0.14-0.29-0.41-0.19-0.64l1.18-2.58
	C560.44,314.37,561.05,314.4,561.2,314.84z"/>
<path class="st0" d="M558.34,320.41l-0.58,1.4c-0.13,0.32-0.1,0.68,0.09,0.96c0.73,1.11,2.66,4.07,4.26,6.79
	c0.54,0.91,1.93,0.53,1.93-0.53v-3.26c0-0.16-0.03-0.31-0.1-0.45c-0.35-0.73-1.64-3.18-3.94-5.3
	C559.47,319.55,558.61,319.75,558.34,320.41z"/>
<path class="st0" d="M554.93,326.04l-1.91,3.16c-0.89,1.47-0.91,3.37,0.1,4.76c0.65,0.88,1.67,1.57,3.28,1.38
	c1.58-0.18,3.19,0.24,4.57,0.82c1.29,0.54,2.57-0.81,1.98-2.07c-1.08-2.33-2.65-5.31-4.73-8.18
	C557.4,324.76,555.66,324.83,554.93,326.04z"/>
<path class="st0" d="M529.51,298.61v47.41c0,1.27,1.43,1.99,2.46,1.26c1.55-1.1,3.37-2.82,3.93-5.15c0.76-3.16,7.36-6.42,10.84-7.94
	c0.95-0.41,1.19-1.64,0.47-2.39c-1.52-1.56-3.53-4.15-3.53-6.89c0,0-0.11-8.73-2.25-14.58c0,0-2.05-8.65-9.8-12.98
	C530.69,296.84,529.51,297.53,529.51,298.61z"/>
<g id="Traps">
	<path class="st0" d="M525.9,288.41v-9.16v-76.8c0-1.57-2.14-2.06-2.8-0.64c-0.51,1.08-0.93,2.29-1.09,3.55
		c-0.18,1.34-0.43,2.66-0.89,3.92c-1.37,3.7-4.76,9.96-12.31,11.4c0,0-6.81,1.44-11.43,3.03c-1.74,0.6-2.28,2.8-0.98,4.11
		c3.26,3.28,8.38,9.21,8.26,13.93c0,0,1.82,16.25,8.88,27.39c1.2,1.89,2.38,3.8,3.42,5.78c1.93,3.65,4.87,9.36,6.9,13.91
		C524.33,289.9,525.9,289.56,525.9,288.41L525.9,288.41z"/>
	<path class="st0" d="M529.51,288.41v-9.16v-76.8c0-1.57,2.14-2.06,2.8-0.64c0.51,1.08,0.93,2.29,1.09,3.55
		c0.18,1.34,0.43,2.66,0.89,3.92c1.37,3.7,4.76,9.96,12.31,11.4c0,0,6.81,1.44,11.43,3.03c1.74,0.6,2.28,2.8,0.98,4.11
		c-3.26,3.28-8.38,9.21-8.26,13.93c0,0-1.82,16.25-8.88,27.39c-1.2,1.89-2.38,3.8-3.42,5.78c-1.93,3.65-4.87,9.36-6.9,13.91
		C531.08,289.9,529.51,289.56,529.51,288.41L529.51,288.41z"/>
</g>
<path class="st0" d="M535.73,202.99c0.05-0.44,0.68-0.48,0.78-0.05c0.68,2.83,2.88,7.62,5.17,11.04c0.55,0.83-0.49,1.8-1.28,1.19
	C537.74,213.11,534.95,209.39,535.73,202.99z"/>
<g id="Lats">
	<path class="st0" d="M510.84,267.54c2.43,3.8,6.29,10.28,8.45,16.32c1.34,3.74,1,7.88-0.93,11.35c-1.37,2.46-3.12,5.76-4.82,9.37
		c-3.25,6.9-4.9,14.45-4.9,22.08l0,0c0,0.52-0.16,1.02-0.45,1.44l0,0c-0.96,1.37-2.95,1.45-4.02,0.16
		c-2.14-2.59-5.19-7.01-6.17-12.11c-0.7-3.61-1.58-7.18-2.66-10.69l-8.03-26.25c-0.76-2.49-1.15-5.08-1.15-7.69l0,0
		c0-2.21,1.93-3.91,4.12-3.62c4.24,0.56,10.86,0.88,15.56-1.61C507.6,265.37,509.77,265.87,510.84,267.54z"/>
	<path class="st0" d="M544.58,267.54c-2.43,3.8-6.29,10.28-8.45,16.32c-1.34,3.74-1,7.88,0.93,11.35c1.37,2.46,3.12,5.76,4.82,9.37
		c3.25,6.9,4.9,14.45,4.9,22.08l0,0c0,0.52,0.16,1.02,0.45,1.44l0,0c0.96,1.37,2.95,1.45,4.02,0.16c2.14-2.59,5.19-7.01,6.17-12.11
		c0.7-3.61,1.58-7.18,2.66-10.69l8.03-26.25c0.76-2.49,1.15-5.08,1.15-7.69l0,0c0-2.21-1.93-3.91-4.12-3.62
		c-4.24,0.56-10.86,0.88-15.56-1.61C547.81,265.37,545.65,265.87,544.58,267.54z"/>
</g>
<path class="st0" d="M572.05,253.65c0.45-2.13-1.97-3.69-3.7-2.37c-1.75,1.33-3.8,3.2-5.64,5.69c-2.17,2.94-5.37,4.49-8.03,5.31
	c-1.76,0.54-1.74,3.01,0.03,3.53c1.94,0.56,4.47,0.84,7.6,0.3c2.83-0.49,5.3-2.17,6.73-4.66
	C570.15,259.49,571.39,256.8,572.05,253.65z"/>
<path class="st0" d="M570.62,244.85c-0.61,0.97-1.54,2.46-2.24,3.72c-0.27,0.48,0.27,1.01,0.75,0.73l2.36-1.38
	c0.58-0.34,0.92-0.97,0.85-1.64c-0.04-0.4-0.12-0.86-0.27-1.28C571.84,244.36,570.98,244.28,570.62,244.85z"/>
<path class="st0" d="M565.31,239.63l-4.07-2.76c-0.15-0.1-0.29-0.19-0.45-0.27c-1.1-0.56-5.17-2.3-7.04,1.66
	c-0.26,0.55-0.41,1.15-0.52,1.75l-2.3,13.04c0,0-0.47,3.86-1.97,6.4c-0.45,0.76,0.12,1.74,1,1.68c1.52-0.09,3.95-0.7,7.53-2.85
	c7.03-4.2,8.93-10.25,8.93-10.25s0.26-0.64,0.67-1.47C568.31,244.13,567.57,241.16,565.31,239.63z"/>
<g id="Rear_Delts">
	<path class="st0" d="M490.83,233.3c-1.29-0.49-2.78-1.18-3.72-2.02c0,0-5.55-3.51-9.93-0.75c0,0-7.32,4.61-10.16,14.03
		c-0.82,2.73-1.1,5.6-0.97,8.45l0.41,9.35c0.07,1.51,1.91,2.19,2.94,1.09l8.57-9.12c1.4-1.49,2.35-3.34,2.71-5.34
		c0.26-1.46,0.75-3.3,1.64-5.05c0.7-1.38,1.73-2.56,2.95-3.52l5.92-4.66C492.07,235.08,491.87,233.7,490.83,233.3z"/>
	<path class="st0" d="M564.58,233.3c1.29-0.49,2.78-1.18,3.72-2.02c0,0,5.55-3.51,9.93-0.75c0,0,7.32,4.61,10.16,14.03
		c0.82,2.73,1.1,5.6,0.97,8.45l-0.41,9.35c-0.07,1.51-1.91,2.19-2.94,1.09l-8.57-9.12c-1.4-1.49-2.35-3.34-2.71-5.34
		c-0.26-1.46-0.75-3.3-1.64-5.05c-0.7-1.38-1.73-2.56-2.95-3.52l-5.92-4.66C563.34,235.08,563.55,233.7,564.58,233.3z"/>
</g>
<g id="Triceps">
	<path class="st0" d="M479.17,258.13c-0.69,1.2-1.5,2.68-2.31,4.26c-2.11,4.16-3.41,8.67-3.86,13.31l-1.66,17.16
		c-0.14,1.45-0.21,2.9-0.21,4.35v5.18c0,0.84,0.19,1.67,0.55,2.43l0,0c0.37,0.78,1.36,1.03,2.05,0.52l0,0
		c1.5-1.09,2.68-2.57,3.42-4.27l4.28-9.83c1.3-2.99,2.07-6.17,2.27-9.42c0.38-6.26,0.62-16.8-1.36-23.33
		C481.92,257.02,479.93,256.8,479.17,258.13z"/>
	<path class="st0" d="M472.15,263.57c-2.42,2.12-5.56,6.42-5.76,14.47c-0.04,1.61-0.07,3.21-0.18,4.81
		c-0.21,3.26-0.49,8.85-0.27,12.98c0.04,0.77,1.14,0.87,1.33,0.12c0.89-3.67,2.18-9.62,2.47-14.52c0,0,1.33-10.68,3.77-16.87
		C473.85,263.71,472.84,262.97,472.15,263.57z"/>
	<path class="st0" d="M576.25,258.13c0.69,1.2,1.5,2.68,2.31,4.26c2.1,4.16,3.41,8.67,3.86,13.31l1.66,17.16
		c0.14,1.45,0.21,2.9,0.21,4.35v5.18c0,0.84-0.19,1.67-0.55,2.43l0,0c-0.37,0.78-1.36,1.03-2.05,0.52l0,0
		c-1.5-1.09-2.68-2.57-3.42-4.27l-4.28-9.83c-1.3-2.99-2.07-6.17-2.27-9.42c-0.38-6.26-0.62-16.8,1.36-23.33
		C573.5,257.02,575.48,256.8,576.25,258.13z"/>
	<path class="st0" d="M583.26,263.57c2.42,2.12,5.56,6.42,5.76,14.47c0.04,1.61,0.07,3.21,0.18,4.81c0.21,3.26,0.49,8.85,0.26,12.98
		c-0.04,0.77-1.14,0.87-1.33,0.12c-0.89-3.67-2.18-9.62-2.47-14.52c0,0-1.33-10.68-3.77-16.87
		C581.56,263.71,582.58,262.97,583.26,263.57z"/>
</g>
<path class="st0" d="M580.73,310.2c-0.61-0.85-1.48-1.94-2.6-3.12c-0.81-0.86-2.26-0.25-2.21,0.93c0.08,1.99,0.27,4.6,0.71,6.74
	c0.29,1.4,1.98,2.02,3.07,1.1c0.38-0.31,0.75-0.7,1.08-1.15C581.75,313.36,581.7,311.54,580.73,310.2z"/>
<path class="st0" d="M592.44,303.4c0.5-0.9,1.84-0.66,2.02,0.35c0.35,1.98,0.46,4.93-0.74,8.32c0,0-1.36,3.41-2.22,6.23
	c-0.29,0.95-1.63,0.99-1.97,0.05c-0.66-1.85-1.29-4.12-1.12-5.71C588.65,310.57,590.95,306.12,592.44,303.4z"/>
<path class="st0" d="M601.39,331.06c1.06,7.01,2.97,20.76,3.15,30.3c0.01,0.69-0.97,0.82-1.13,0.15
	c-1.39-5.92-3.57-17.54-3.03-30.39C600.41,330.51,601.3,330.45,601.39,331.06z"/>
<path class="st0" d="M595.09,314.1c-0.68,2.53-1.52,5.56-2.19,7.6c-0.46,1.39-0.67,2.86-0.62,4.33c0.14,4.21,0.67,12.75,2.62,18.53
	c1.61,4.77,3.43,11.58,4.63,16.28c0.14,0.54,0.93,0.4,0.89-0.15l-3.75-46.44C596.59,313.34,595.32,313.22,595.09,314.1z"/>
<path class="st0" d="M585.46,319.37c-0.01-0.03-0.02-0.06-0.02-0.09c-0.34-1.26-1.73-1.95-2.91-1.4c-1.01,0.47-2.12,1.22-2.89,2.44
	c-1.19,1.88-1.09,4.31,0.06,6.22c0.98,1.64,2.55,4.79,4.13,10.1c0.52,1.75,1.15,3.47,1.85,5.16l9.59,23.01
	c0.25,0.6,1.15,0.33,1.03-0.31l-4.76-25.74c0,0-1.5-9.26-3.85-13.81C586.77,323.17,586,321.31,585.46,319.37z"/>
</svg>
