<?xml version="1.0" encoding="utf-8"?>
<!-- Generator: Adobe Adobe Illustrator 29.2.0, SVG Export Plug-In . SVG Version: 6.00 Build 0)  -->
<svg version="1.1" id="Layer_1" xmlns="http://www.w3.org/2000/svg" xmlns:xlink="http://www.w3.org/1999/xlink" x="0px" y="0px"
	 viewBox="0 0 350 900" style="enable-background:new 0 0 350 900;" xml:space="preserve">
<g id="Backgound">
	<path d="M156.96,92.82v-8.54c0-1.1,1.47-1.48,2.01-0.52l13.84,25.05c0.37,0.67,0.56,1.41,0.56,2.17v8.68
		c0,0.49-0.64,0.66-0.89,0.24l-15.21-25.96C157.07,93.6,156.96,93.21,156.96,92.82z"/>
	<polygon points="175,84.09 168.28,84.09 175,100.78 	"/>
	<path d="M127.13,107.56h10.95c1.07,0,2.1-0.36,2.94-1.02c3.35-2.65,11.99-9.71,11.99-11.99c0-2.67-20.1,6.98-26.2,12.12
		C126.45,106.98,126.66,107.56,127.13,107.56z"/>
	<path d="M155.04,105.89l-4.66,7.92c-0.21,0.36,0.05,0.82,0.47,0.82h8.62c0.41,0,0.67-0.43,0.49-0.79l-3.96-7.92
		C155.81,105.53,155.26,105.51,155.04,105.89z"/>
	<path d="M135.14,196.72c0.81,0.28,1.68,0.51,2.52,0.34c0.84-0.17,1.63-0.86,1.65-1.72c0.01-0.57-0.31-1.1-0.66-1.55
		c-1.22-1.59-2.92-2.81-4.82-3.45c-1.02-0.35-2.09-0.53-3.15-0.71c-0.94-0.16-2.3-0.58-3.2-0.12c-0.67,0.34-1.02,1.16-0.62,1.84
		c0.49,0.83,1.55,1.54,2.3,2.12c0.85,0.66,1.76,1.26,2.7,1.78C132.91,195.84,134.01,196.33,135.14,196.72z"/>
	<path d="M132.41,207.29c0.41,0.46,0.9,0.95,1.52,0.94c0.99-0.02,1.42-1.23,1.59-2.2c0.14-0.8,0.28-1.64,0.01-2.41
		c-0.3-0.84-1.04-1.43-1.75-1.97c-1.68-1.29-4.07-3.27-6.37-2.9c-3.07,0.49,1.05,4.14,1.81,4.99
		C130.29,204.92,131.35,206.1,132.41,207.29z"/>
	<path d="M130.57,217.75c0.38,0.5,0.89,1.04,1.51,0.94c0.32-0.05,0.58-0.28,0.8-0.52c0.94-1.03,1.36-2.5,1.11-3.87
		c-0.27-1.49-1.28-2.76-2.5-3.66c-1.21-0.9-2.63-1.48-4.03-2.05c-0.75-0.31-1.52-0.33-1.76,0.58c-0.18,0.66,0.15,1.02,0.5,1.53
		c0.99,1.43,1.68,3.1,2.63,4.57C129.38,216.11,129.96,216.94,130.57,217.75z"/>
	<path d="M125.77,223.5c1.12,2.21,2.76,4.12,4.52,5.87c0.72,0.72,1.56,1.45,2.58,1.5c1.49,0.08,2.7-1.5,2.63-2.99
		c-0.07-1.5-1.11-2.8-2.34-3.65c-0.94-0.65-2.02-1.11-2.91-1.83c-1.51-1.22-2.43-3.12-4.12-4.07c-1.06-0.6-2.29,0-1.9,1.28
		C124.64,220.93,125.15,222.27,125.77,223.5z"/>
	<path d="M113.85,183.24c1.13,2.45,2.3,4.95,4.18,6.9c1.67,1.74,3.92,3.06,4.87,5.27c0.59,1.37,0.59,2.92,0.59,4.41
		c-0.01,3.59-0.03,7.19-0.04,10.78"/>
	<path d="M124.95,297.72c0.15,1.28,0.33,2.59,0.92,3.74c1.03,2.02,3.11,3.24,5.08,4.35c0.76,0.43,1.59,0.87,2.46,0.81
		c1.82-0.14,2.71-2.28,2.95-4.08c0.69-5.38-0.89-10.77-1.06-16.19c-0.08-2.53,0.15-5.07,0.14-7.6c-0.02-3.6-0.53-7.18-0.64-10.78
		c-0.25-8.62,1.79-17.61-1.33-25.64c-1-2.57-2.5-4.93-4.41-6.92c-0.92-0.96-3.21-1.85-3.24,0.19c-0.03,2.23,0.02,4.47-0.03,6.7
		c-0.09,4.51-0.31,9.02-0.57,13.52c-0.25,4.49-0.54,8.98-0.76,13.47c-0.22,4.48-0.37,8.96-0.35,13.44
		c0.02,4.49,0.21,8.98,0.66,13.45C124.83,296.68,124.89,297.2,124.95,297.72z"/>
	<path d="M133.32,339.02c1.76,3.95,3.53,7.92,4.76,12.06c2.34,7.89,2.84,16.64,7.72,23.27c2.1-4.2,4.18-8.41,6.25-12.62
		c1.61-3.28,3.25-6.65,3.69-10.28c0.06-0.51,0.1-1.03-0.05-1.52c-0.18-0.62-0.63-1.11-1.07-1.58c-2.81-3.05-5.62-6.09-8.44-9.14
		c-7.18-7.77-14.39-15.59-20.25-24.39c-1.48-2.23-2.89-4.53-4.76-6.46c-0.24-0.24-0.58-0.79-0.94-0.51
		c-0.28,0.22-0.24,0.87-0.2,1.17c0.08,0.61,0.43,1.17,0.68,1.72c0.31,0.69,0.61,1.38,0.92,2.06c2.49,5.59,4.98,11.17,7.48,16.76
		C130.5,332.72,131.91,335.87,133.32,339.02z"/>
	<path d="M162.74,360.85c0.4-0.91,0.81-1.85,1.56-2.51c-0.73,12.62-1.46,25.23-2.19,37.85c-0.25,4.24-0.5,8.54-1.87,12.56
		c-0.58,0.3-1.32,0-1.73-0.51c-0.41-0.51-0.56-1.17-0.7-1.81c-0.73-3.35-1.46-6.7-2.19-10.05c-0.71-3.26-1.49-6.51-2.11-9.79
		c-0.18-0.97-0.35-1.96-0.24-2.95c0.11-1.02,0.5-2,0.88-2.95c1.26-3.11,2.65-6.18,3.98-9.26c1.37-3.17,2.75-6.34,4.12-9.51
		C162.43,361.57,162.58,361.21,162.74,360.85z"/>
	<path d="M115.57,308.85c-0.03-0.08-0.15-0.05-0.14,0.03c0.3,3.62,2.83,27.99,19.48,72.73c15.11,40.62,23.52,69.41,25.89,77.8
		c0.08,0.29,0.52,0.21,0.49-0.09c-0.89-10.45-4.79-49.89-14.78-74.15C135.55,358.58,117.53,313.75,115.57,308.85z"/>
	<path d="M140.69,560.38c0.56,0.8,1.76,0.73,2.21-0.13c3.28-6.22,12.72-26.21-2.34-24.77C125.56,536.91,136.77,554.76,140.69,560.38
		z"/>
	<polygon points="126.98,548.73 140.91,580.73 128.96,575.36 	"/>
	<polygon points="154.16,545.09 145.93,573.94 145.93,587.52 154.16,564.73 	"/>
	<path d="M153.52,586.63c-3.34,12.04-18.11,70.97-3.66,126.32c0.06,0.24,0.39,0.27,0.49,0.04c2.87-6.45,24.55-58.84,4.48-126.38
		C154.64,585.96,153.71,585.97,153.52,586.63z"/>
	<path d="M123.56,587.85c0.04-1.02,1.49-1.18,1.75-0.19c3.1,11.71,13.5,52.45,15.6,79.33c1.9,24.32,5.51,50.48,7.09,61.31
		c0.03,0.2-0.27,0.25-0.31,0.05C142.78,704.91,122.73,607.66,123.56,587.85z"/>
	<path d="M120.48,611.84c0,0-9.05,25.74,5.09,62.22c10.97,28.3,15.79,45.2,17.4,51.36c0.04,0.14,0.24,0.09,0.22-0.05
		C140.28,707.85,124.08,611.33,120.48,611.84z"/>
	<path d="M153.45,743.91v16.09c0,0.42-0.55,0.58-0.77,0.22c-2.83-4.6-12.44-20.5-10.99-21.95c1.25-1.25,7,1.32,9.97,2.77
		C152.76,741.57,153.45,742.68,153.45,743.91z"/>
	<path d="M142.35,753.91c3.6,2.71,9.48,9.31,13.56,24.85c0.14,0.53,0.21,1.07,0.21,1.62v18.06c0,0.94-1.18,1.35-1.76,0.61
		c-3.27-4.19-10.44-13.06-15.68-17.22c-1.56-1.24-2.37-3.19-2.16-5.16l2.27-21.19C138.97,753.74,140.97,752.87,142.35,753.91z"/>
	<path d="M152.84,802.66c-1-0.74-2.42-0.26-2.74,0.93c-1.03,3.8-2.8,11.2-1.34,12.45c1.98,1.7,7.35,0,7.35,0
		S160.47,808.3,152.84,802.66z"/>
	<path d="M136.98,791.02c-1.32-1.03-3.22-0.82-4.28,0.48c-4.59,5.63-15.66,19.68-13.63,21.71c2.18,2.18,13.67,2.91,21.2,2.54
		c1.94-0.1,3.55-1.54,3.83-3.47l1.61-11.13c0.26-1.81-0.46-3.62-1.9-4.76L136.98,791.02z"/>
	<path d="M193.04,92.82v-8.54c0-1.1-1.47-1.48-2.01-0.52l-13.84,25.05c-0.37,0.67-0.56,1.41-0.56,2.17v8.68
		c0,0.49,0.64,0.66,0.89,0.24l15.21-25.96C192.93,93.6,193.04,93.21,193.04,92.82z"/>
	<polygon points="175,84.09 181.72,84.09 175,100.78 	"/>
	<path d="M222.87,107.56h-10.95c-1.07,0-2.1-0.36-2.94-1.02c-3.35-2.65-11.99-9.71-11.99-11.99c0-2.67,20.1,6.98,26.2,12.12
		C223.55,106.98,223.34,107.56,222.87,107.56z"/>
	<path d="M194.96,105.89l4.66,7.92c0.21,0.36-0.05,0.82-0.47,0.82h-8.62c-0.41,0-0.67-0.43-0.49-0.79l3.96-7.92
		C194.19,105.53,194.74,105.51,194.96,105.89z"/>
	<path d="M214.86,196.72c-0.81,0.28-1.68,0.51-2.52,0.34c-0.84-0.17-1.63-0.86-1.65-1.72c-0.01-0.57,0.31-1.1,0.66-1.55
		c1.22-1.59,2.92-2.81,4.82-3.45c1.02-0.35,2.09-0.53,3.15-0.71c0.94-0.16,2.3-0.58,3.2-0.12c0.67,0.34,1.02,1.16,0.62,1.84
		c-0.49,0.83-1.55,1.54-2.3,2.12c-0.85,0.66-1.76,1.26-2.7,1.78C217.09,195.84,215.99,196.33,214.86,196.72z"/>
	<path d="M217.59,207.29c-0.41,0.46-0.9,0.95-1.52,0.94c-0.99-0.02-1.42-1.23-1.59-2.2c-0.14-0.8-0.28-1.64-0.01-2.41
		c0.3-0.84,1.04-1.43,1.75-1.97c1.68-1.29,4.07-3.27,6.37-2.9c3.07,0.49-1.05,4.14-1.81,4.99
		C219.71,204.92,218.65,206.1,217.59,207.29z"/>
	<path d="M219.43,217.75c-0.38,0.5-0.89,1.04-1.51,0.94c-0.32-0.05-0.58-0.28-0.8-0.52c-0.94-1.03-1.36-2.5-1.11-3.87
		c0.27-1.49,1.28-2.76,2.5-3.66c1.21-0.9,2.63-1.48,4.03-2.05c0.75-0.31,1.52-0.33,1.76,0.58c0.18,0.66-0.15,1.02-0.5,1.53
		c-0.99,1.43-1.68,3.1-2.63,4.57C220.62,216.11,220.04,216.94,219.43,217.75z"/>
	<path d="M224.23,223.5c-1.12,2.21-2.76,4.12-4.52,5.87c-0.72,0.72-1.56,1.45-2.58,1.5c-1.49,0.08-2.7-1.5-2.63-2.99
		c0.07-1.5,1.11-2.8,2.34-3.65c0.94-0.65,2.02-1.11,2.91-1.83c1.51-1.22,2.43-3.12,4.12-4.07c1.06-0.6,2.29,0,1.9,1.28
		C225.36,220.93,224.85,222.27,224.23,223.5z"/>
	<path d="M236.15,183.24c-1.13,2.45-2.3,4.95-4.18,6.9c-1.67,1.74-3.92,3.06-4.87,5.27c-0.59,1.37-0.59,2.92-0.59,4.41
		c0.01,3.59,0.03,7.19,0.04,10.78"/>
	<path d="M225.05,297.72c-0.15,1.28-0.33,2.59-0.92,3.74c-1.03,2.02-3.11,3.24-5.08,4.35c-0.76,0.43-1.59,0.87-2.46,0.81
		c-1.82-0.14-2.71-2.28-2.95-4.08c-0.69-5.38,0.89-10.77,1.06-16.19c0.08-2.53-0.15-5.07-0.14-7.6c0.02-3.6,0.53-7.18,0.64-10.78
		c0.25-8.62-1.79-17.61,1.33-25.64c1-2.57,2.5-4.93,4.41-6.92c0.92-0.96,3.21-1.85,3.24,0.19c0.03,2.23-0.02,4.47,0.03,6.7
		c0.09,4.51,0.31,9.02,0.57,13.52c0.25,4.49,0.54,8.98,0.76,13.47c0.22,4.48,0.37,8.96,0.35,13.44c-0.02,4.49-0.21,8.98-0.66,13.45
		C225.17,296.68,225.11,297.2,225.05,297.72z"/>
	<path d="M216.68,339.02c-1.76,3.95-3.53,7.92-4.76,12.06c-2.34,7.89-2.84,16.64-7.72,23.27c-2.1-4.2-4.18-8.41-6.25-12.62
		c-1.61-3.28-3.25-6.65-3.69-10.28c-0.06-0.51-0.1-1.03,0.05-1.52c0.18-0.62,0.63-1.11,1.07-1.58c2.81-3.05,5.62-6.09,8.44-9.14
		c7.18-7.77,14.39-15.59,20.25-24.39c1.48-2.23,2.89-4.53,4.76-6.46c0.24-0.24,0.58-0.79,0.94-0.51c0.28,0.22,0.24,0.87,0.2,1.17
		c-0.08,0.61-0.43,1.17-0.68,1.72c-0.31,0.69-0.61,1.38-0.92,2.06c-2.49,5.59-4.98,11.17-7.48,16.76
		C219.5,332.72,218.09,335.87,216.68,339.02z"/>
	<path d="M187.26,360.85c-0.4-0.91-0.81-1.85-1.56-2.51c0.73,12.62,1.46,25.23,2.19,37.85c0.25,4.24,0.5,8.54,1.87,12.56
		c0.58,0.3,1.32,0,1.73-0.51c0.41-0.51,0.56-1.17,0.7-1.81c0.73-3.35,1.46-6.7,2.19-10.05c0.71-3.26,1.49-6.51,2.11-9.79
		c0.18-0.97,0.35-1.96,0.24-2.95c-0.11-1.02-0.5-2-0.88-2.95c-1.26-3.11-2.65-6.18-3.98-9.26c-1.37-3.17-2.75-6.34-4.12-9.51
		C187.57,361.57,187.42,361.21,187.26,360.85z"/>
	<path d="M234.43,308.85c0.03-0.08,0.15-0.05,0.14,0.03c-0.3,3.62-2.83,27.99-19.48,72.73c-15.11,40.62-23.52,69.41-25.89,77.8
		c-0.08,0.29-0.52,0.21-0.49-0.09c0.89-10.45,4.79-49.89,14.78-74.15C214.45,358.58,232.47,313.75,234.43,308.85z"/>
	<path d="M209.31,560.38c-0.56,0.8-1.76,0.73-2.21-0.13c-3.28-6.22-12.72-26.21,2.34-24.77
		C224.44,536.91,213.23,554.76,209.31,560.38z"/>
	<polygon points="223.01,548.73 209.09,580.73 221.04,575.36 	"/>
	<polygon points="195.84,545.09 204.07,573.94 204.07,587.52 195.84,564.73 	"/>
	<path d="M196.48,586.63c3.34,12.04,18.11,70.97,3.66,126.32c-0.06,0.24-0.39,0.27-0.49,0.04c-2.87-6.45-24.55-58.84-4.48-126.38
		C195.36,585.96,196.29,585.97,196.48,586.63z"/>
	<path d="M226.44,587.85c-0.04-1.02-1.49-1.18-1.75-0.19c-3.1,11.71-13.5,52.45-15.6,79.33c-1.9,24.32-5.51,50.48-7.09,61.31
		c-0.03,0.2,0.27,0.25,0.31,0.05C207.22,704.91,227.27,607.66,226.44,587.85z"/>
	<path d="M229.52,611.84c0,0,9.05,25.74-5.09,62.22c-10.97,28.3-15.79,45.2-17.4,51.36c-0.04,0.14-0.24,0.09-0.22-0.05
		C209.72,707.85,225.92,611.33,229.52,611.84z"/>
	<path d="M196.55,743.91v16.09c0,0.42,0.55,0.58,0.77,0.22c2.83-4.6,12.44-20.5,10.99-21.95c-1.25-1.25-7,1.32-9.97,2.77
		C197.24,741.57,196.55,742.68,196.55,743.91z"/>
	<path d="M207.65,753.91c-3.6,2.71-9.48,9.31-13.56,24.85c-0.14,0.53-0.21,1.07-0.21,1.62v18.06c0,0.94,1.18,1.35,1.76,0.61
		c3.27-4.19,10.45-13.06,15.68-17.22c1.56-1.24,2.37-3.19,2.16-5.16l-2.27-21.19C211.03,753.74,209.03,752.87,207.65,753.91z"/>
	<path d="M197.16,802.66c1-0.74,2.42-0.26,2.74,0.93c1.03,3.8,2.8,11.2,1.34,12.45c-1.98,1.7-7.35,0-7.35,0
		S189.53,808.3,197.16,802.66z"/>
	<path d="M213.02,791.02c1.32-1.03,3.22-0.82,4.28,0.48c4.59,5.63,15.66,19.68,13.63,21.71c-2.18,2.18-13.67,2.91-21.2,2.54
		c-1.94-0.1-3.55-1.54-3.83-3.47l-1.61-11.13c-0.26-1.81,0.46-3.62,1.9-4.76L213.02,791.02z"/>
</g>
<g id="Quads">
	<path d="M108.06,315.77c-0.15-0.44-0.78-0.38-0.84,0.08c-1.29,9.68-6.8,55.58,0.25,83.31c6.44,25.29,18.48,61.99,22.76,74.83
		c1.03,3.1,1.56,6.34,1.56,9.6v38.51c0,1.61,0.71,3.16,2,4.11c2.58,1.9,6.84,0.91,7.61-24.95c0.89-29.75,0.37-66.75,0.12-80.92
		c-0.07-3.89-0.74-7.75-1.99-11.44L108.06,315.77z"/>
	<path d="M149.05,437.62c0,0,3.68,32.24,0,50.63c-3.68,18.38,3.39,57.41,8.48,36.48C162.62,503.8,161.21,458.83,149.05,437.62z"/>
	<path d="M100.82,382.06c-0.05-0.41-0.65-0.41-0.69,0.01c-1.15,11.12-3.91,48.68,6.78,83.84c10.66,35.05,14.7,48.88,15.74,52.45
		c0.06,0.19,0.34,0.16,0.35-0.04l2.25-38.34c0.21-3.62-0.32-7.24-1.59-10.63C117.66,453.31,103.4,403.88,100.82,382.06z"/>
	<path d="M241.94,315.77c0.15-0.44,0.78-0.38,0.84,0.08c1.29,9.68,6.8,55.58-0.25,83.31c-6.44,25.29-18.48,61.99-22.76,74.83
		c-1.03,3.1-1.56,6.34-1.56,9.6v38.51c0,1.61-0.71,3.16-2,4.11c-2.58,1.9-6.84,0.91-7.61-24.95c-0.89-29.75-0.37-66.75-0.12-80.92
		c0.07-3.89,0.74-7.75,1.99-11.44L241.94,315.77z"/>
	<path d="M200.95,437.62c0,0-3.68,32.24,0,50.63c3.68,18.38-3.39,57.41-8.48,36.48C187.38,503.8,188.79,458.83,200.95,437.62z"/>
	<path d="M249.18,382.06c0.05-0.41,0.65-0.41,0.7,0.01c1.15,11.12,3.91,48.68-6.78,83.84c-10.66,35.05-14.7,48.88-15.74,52.45
		c-0.06,0.19-0.34,0.16-0.35-0.04l-2.25-38.34c-0.21-3.62,0.32-7.24,1.59-10.63C232.34,453.31,246.6,403.88,249.18,382.06z"/>
</g>
<g id="Abs">
	<path d="M148.12,201.62c3.84-2.49,8.44-3.47,12.92-4.41c1.54-0.32,3.35-0.57,4.49,0.51c0.9,0.85,1.03,2.21,1.08,3.44
		c0.17,3.7,0.21,7.4,0.13,11.1c-0.01,0.47-0.03,0.98-0.3,1.37c-0.39,0.59-1.17,0.75-1.87,0.87c-3.65,0.61-7.26,1.42-10.81,2.43
		c-3.55,1.01-7.05,2.22-10.47,3.62c-0.84,0.34-1.68,0.7-2.51,1.07c-0.34,0.15-0.85,0.52-1.16,0.36c-0.21-0.11-0.41-0.49-0.48-0.71
		c-0.15-0.46,0-0.96,0.05-1.42c0.08-0.74,0.02-1.49,0.06-2.23c0.16-2.99,0.95-5.95,2.32-8.61c1.36-2.66,3.3-5.03,5.71-6.8
		C147.55,202.01,147.83,201.81,148.12,201.62z"/>
	<path d="M163.44,242.51l-18.95,1.25c-1.6,0.11-3.21-0.27-4.53-1.18c-3.47-2.41-2.22-6.4-0.49-9.35c2.8-4.78,6.82-8.9,11.73-11.47
		c2.27-1.19,4.72-2.04,7.24-2.49c2.31-0.41,5.14-0.73,7.44-0.09c2.1,0.59,1.65,2.84,1.53,4.54c-0.2,2.9-0.36,5.81-0.48,8.72
		c-0.09,2.19-0.15,4.38-0.18,6.57C166.72,240.86,165.29,242.39,163.44,242.51z"/>
	<path d="M167.35,269.81c0.07,1.11-1.13,1.83-2.09,1.26c-1.92-1.16-4.24-1.77-6.45-2.32c-5.59-1.4-11.32-2.8-17.04-2.19
		c-0.57,0.06-1.19,0.12-1.65-0.21c-0.45-0.33-0.58-0.95-0.66-1.5c-0.33-2.14-0.56-4.29-0.69-6.44c-0.09-1.52-0.13-3.09,0.42-4.5
		c0.92-2.39,3.29-3.88,5.63-4.92c4.68-2.07,9.87-2.99,14.98-2.65c1.94,0.13,3.95,0.46,5.64,1.48c0.53,0.32,1.05,0.7,1.23,1.32
		c0.19,0.69,0.09,1.51,0.09,2.22c0.02,4.63,0.14,9.25,0.35,13.87C167.17,266.74,167.25,268.27,167.35,269.81z"/>
	<path d="M151.71,331.61c1.27,3.8,2.68,7.62,5.04,10.85c0.66,0.91,1.44,1.8,2.49,2.2c0.92,0.36,1.94,0.31,2.91,0.12
		c1.86-0.37,3.7-1.32,4.69-2.94c1.14-1.84,1.01-4.16,0.91-6.33c-0.72-15.17,1.6-30.44-0.12-45.53c-0.27-2.38-0.65-4.79-1.67-6.97
		c-1.53-3.28-4.42-5.79-7.64-7.45c-3.22-1.66-6.78-2.54-10.33-3.26c-1.98-0.4-4.19-0.76-6.09,0.14c-1.44,0.68-1.72,1.64-1.53,3.13
		c0.56,4.45,0.85,8.93,1.44,13.38c0.62,4.64,1.38,9.25,2.28,13.85c0.9,4.61,1.95,9.18,3.13,13.72c1.18,4.53,2.5,9.02,3.95,13.46
		C151.35,330.53,151.52,331.07,151.71,331.61z"/>
	<path d="M201.88,201.62c-3.84-2.49-8.44-3.47-12.92-4.41c-1.54-0.32-3.35-0.57-4.49,0.51c-0.9,0.85-1.03,2.21-1.08,3.44
		c-0.17,3.7-0.21,7.4-0.13,11.1c0.01,0.47,0.03,0.98,0.3,1.37c0.39,0.59,1.17,0.75,1.87,0.87c3.65,0.61,7.26,1.42,10.81,2.43
		c3.55,1.01,7.05,2.22,10.47,3.62c0.84,0.34,1.68,0.7,2.51,1.07c0.34,0.15,0.85,0.52,1.16,0.36c0.21-0.11,0.41-0.49,0.48-0.71
		c0.15-0.46,0-0.96-0.05-1.42c-0.08-0.74-0.02-1.49-0.06-2.23c-0.16-2.99-0.95-5.95-2.32-8.61c-1.36-2.66-3.3-5.03-5.71-6.8
		C202.45,202.01,202.17,201.81,201.88,201.62z"/>
	<path d="M186.56,242.51l18.95,1.25c1.6,0.11,3.21-0.27,4.53-1.18c3.47-2.41,2.22-6.4,0.49-9.35c-2.8-4.78-6.82-8.9-11.73-11.47
		c-2.27-1.19-4.72-2.04-7.24-2.49c-2.31-0.41-5.14-0.73-7.44-0.09c-2.1,0.59-1.65,2.84-1.53,4.54c0.2,2.9,0.36,5.81,0.48,8.72
		c0.09,2.19,0.15,4.38,0.18,6.57C183.28,240.86,184.71,242.39,186.56,242.51z"/>
	<path d="M182.65,269.81c-0.07,1.11,1.13,1.83,2.09,1.26c1.92-1.16,4.24-1.77,6.45-2.32c5.59-1.4,11.32-2.8,17.04-2.19
		c0.57,0.06,1.19,0.12,1.65-0.21c0.45-0.33,0.58-0.95,0.66-1.5c0.33-2.14,0.56-4.29,0.69-6.44c0.09-1.52,0.13-3.09-0.42-4.5
		c-0.92-2.39-3.29-3.88-5.63-4.92c-4.68-2.07-9.87-2.99-14.98-2.65c-1.94,0.13-3.95,0.46-5.64,1.48c-0.53,0.32-1.05,0.7-1.23,1.32
		c-0.19,0.69-0.09,1.51-0.09,2.22c-0.02,4.63-0.14,9.25-0.35,13.87C182.83,266.74,182.75,268.27,182.65,269.81z"/>
	<path d="M198.29,331.61c-1.27,3.8-2.68,7.62-5.04,10.85c-0.66,0.91-1.44,1.8-2.49,2.2c-0.92,0.36-1.94,0.31-2.91,0.12
		c-1.86-0.37-3.7-1.32-4.69-2.94c-1.14-1.84-1.01-4.16-0.91-6.33c0.72-15.17-1.6-30.44,0.12-45.53c0.27-2.38,0.65-4.79,1.67-6.97
		c1.53-3.28,4.42-5.79,7.64-7.45c3.22-1.66,6.78-2.54,10.33-3.26c1.98-0.4,4.19-0.76,6.09,0.14c1.44,0.68,1.72,1.64,1.53,3.13
		c-0.56,4.45-0.85,8.93-1.44,13.38c-0.62,4.64-1.38,9.25-2.28,13.85c-0.9,4.61-1.95,9.18-3.13,13.72c-1.18,4.53-2.5,9.02-3.95,13.46
		C198.65,330.53,198.48,331.07,198.29,331.61z"/>
</g>
<g id="Biceps">
	<path d="M75.56,180.17c-3.32,8.28-3.72,17.4-3.87,26.32c-0.05,3.1-0.08,6.21,0.32,9.29c0.14,1.04,0.44,2.24,1.41,2.65
		c0.55,0.24,1.18,0.14,1.76-0.01c3.14-0.82,5.63-3.16,7.89-5.5c4.05-4.19,7.83-8.65,11.31-13.33c2.14-2.88,4.18-5.88,5.58-9.19
		c1.25-2.98,1.95-6.16,2.59-9.33c0.67-3.34,1.27-6.71,1.26-10.11c-0.01-1.83-0.21-3.7-0.99-5.35c-0.78-1.65-2.22-3.07-4.01-3.46
		c-2.09-0.46-4.19,0.47-6.17,1.05c-1.9,0.56-3.71,1.38-5.39,2.43c-3.43,2.13-6.29,5.12-8.52,8.48
		C77.47,176.01,76.4,178.05,75.56,180.17z"/>
	<path d="M78.6,229.27c11.69-7.6,21.57-18.96,24.4-32.61"/>
	<path d="M274.44,180.17c3.32,8.28,3.72,17.4,3.87,26.32c0.05,3.1,0.08,6.21-0.32,9.29c-0.14,1.04-0.44,2.24-1.41,2.65
		c-0.55,0.24-1.18,0.14-1.76-0.01c-3.14-0.82-5.63-3.16-7.89-5.5c-4.05-4.19-7.83-8.65-11.31-13.33c-2.14-2.88-4.18-5.88-5.58-9.19
		c-1.25-2.98-1.95-6.16-2.59-9.33c-0.67-3.34-1.27-6.71-1.26-10.11c0.01-1.83,0.21-3.7,0.99-5.35s2.22-3.07,4.01-3.46
		c2.09-0.46,4.19,0.47,6.17,1.05c1.9,0.56,3.71,1.38,5.39,2.43c3.43,2.13,6.29,5.12,8.52,8.48
		C272.53,176.01,273.6,178.05,274.44,180.17z"/>
	<path d="M271.4,229.27c-11.69-7.6-21.57-18.96-24.4-32.61"/>
</g>
<g id="Chest">
	<path d="M169.31,129.11l1.01,53.38c0.03,1.46-0.5,2.89-1.49,3.96c-3.65,3.93-14.46,11.05-39.2-2.05l-16.57-8.21
		c-2.23-1.1-3.49-3.52-3.11-5.98c2.02-13.26,11.67-53.01,54.51-46.64C167.21,123.98,169.26,126.33,169.31,129.11z"/>
	<path d="M180.69,129.11l-1.01,53.38c-0.03,1.46,0.5,2.89,1.49,3.96c3.65,3.93,14.46,11.05,39.2-2.05l16.57-8.21
		c2.23-1.1,3.49-3.52,3.11-5.98c-2.02-13.26-11.67-53.01-54.51-46.64C182.79,123.98,180.74,126.33,180.69,129.11z"/>
</g>
<g id="Deltoids">
	<path d="M118.45,107.24c-7.99,6.4-29.95,25.54-31.29,43.59c-0.08,1.1,0.82,2.01,1.92,1.95c7.28-0.44,32.19-4.82,32.3-44.13
		C121.39,107.14,119.63,106.3,118.45,107.24z"/>
	<path d="M105.01,104.35c-3.79,3.87-14.9,16.13-22.59,33.98c-0.32,0.73-1.39,0.63-1.55-0.15c-1.74-8.49-5.12-35.86,23.58-35.22
		C105.17,102.97,105.51,103.84,105.01,104.35z"/>
	<path d="M231.55,107.24c7.99,6.4,29.95,25.54,31.29,43.59c0.08,1.1-0.82,2.01-1.92,1.95c-7.28-0.44-32.19-4.82-32.3-44.13
		C228.61,107.14,230.37,106.3,231.55,107.24z"/>
	<path d="M244.99,104.35c3.79,3.87,14.9,16.13,22.59,33.98c0.32,0.73,1.39,0.63,1.55-0.15c1.74-8.49,5.12-35.86-23.58-35.22
		C244.83,102.97,244.49,103.84,244.99,104.35z"/>
</g>
<g id="Forearms">
	<path d="M83.79,244.37l0.83,8.94c0.14,1.52-0.58,2.98-1.87,3.8c-4.89,3.08-16.89,10.36-20.25,9.69
		c-3.37-0.67,11.81-16.87,18.21-23.51C81.77,242.18,83.65,242.84,83.79,244.37z"/>
	<path d="M68.69,226.93c-6.35,5.85-21.56,23.21-32.49,62.77l-13.42,30.45c-0.15,0.35,0.33,0.63,0.55,0.31
		c9.16-13.12,49.4-71.93,49.24-91.86C72.55,226.6,70.16,225.58,68.69,226.93z"/>
	<path d="M27.71,323.08c0.85-1.41,26.87-39.58,41.29-51.18"/>
	<path d="M76.64,269.34c0,0-30.26,48.08-39.03,50.06"/>
	<path d="M266.21,244.37l-0.83,8.94c-0.14,1.52,0.58,2.98,1.87,3.8c4.89,3.08,16.89,10.36,20.25,9.69
		c3.37-0.67-11.81-16.87-18.21-23.51C268.23,242.18,266.35,242.84,266.21,244.37z"/>
	<path d="M281.31,226.93c6.35,5.85,21.56,23.21,32.49,62.77l13.42,30.45c0.15,0.35-0.33,0.63-0.55,0.31
		c-9.16-13.12-49.4-71.93-49.24-91.86C277.45,226.6,279.84,225.58,281.31,226.93z"/>
	<path d="M322.29,323.08c-0.85-1.41-26.87-39.58-41.29-51.18"/>
	<path d="M273.36,269.34c0,0,30.26,48.08,39.03,50.06"/>
</g>
</svg>
