<?xml version="1.0" encoding="utf-8"?>
<!-- Generator: Adobe Adobe Illustrator 29.2.0, SVG Export Plug-In . SVG Version: 6.00 Build 0)  -->
<svg version="1.1" id="Layer_1" xmlns="http://www.w3.org/2000/svg" xmlns:xlink="http://www.w3.org/1999/xlink" x="0px" y="0px"
	 viewBox="0 0 350 900" style="enable-background:new 0 0 350 900;" xml:space="preserve">
<g id="Background">
	<path d="M162.47,57.57h5.95l-0.73,49.82c0,0-6.25-5.52-27.89-8.42C139.81,98.96,165.23,95.04,162.47,57.57z"/>
	<path d="M124.25,130.54c3.33,5.34,10.45,17.68,12.15,28.01c0.28,1.72-1.1,3.26-2.84,3.18c-8.66-0.39-31.96-1.94-31.96-7.14
		c0-5.09,13.26-19.02,18.67-24.48C121.44,128.93,123.38,129.14,124.25,130.54z"/>
	<path d="M68.65,258.15c-0.92,0.69-2.23-0.01-2.16-1.16c0.41-6.48,2.81-21.5,12.14-17.87C87.83,242.69,74.21,253.96,68.65,258.15z"
		/>
	<path d="M51.65,253.93c0,0-33.11,70.88-29.63,82.2"/>
	<path d="M54.84,257.7c-0.29,0.87-23.82,51.7-20.91,62.45c2.69,9.94,24.1-48.97,23.02-61.61C56.86,257.49,55.62,256.99,54.84,257.7
		L54.84,257.7z"/>
	<path d="M66.43,265.26l13.83-4.44c1.18-0.38,2.2,0.89,1.57,1.96c-6.55,11.12-29.46,49.42-38.65,57.22
		c-0.59,0.5-1.47-0.11-1.19-0.84C45.77,309.12,62.01,266.67,66.43,265.26z"/>
	<path d="M138.79,282.97c0,0,15.78-11.58,26.74-26.05c0.7-0.92,2.17-0.42,2.17,0.73v58.8c0,1.18-1.41,1.78-2.25,0.96
		C157.9,310.09,134.3,286.54,138.79,282.97z"/>
	<path d="M126.06,278.89l-2.81,23.16c-0.19,1.59,1.44,2.79,2.89,2.11c3.1-1.43,7.29-3.54,7.56-4.63c0.39-1.56-1.81-15.64-5.87-21.1
		C127.3,277.71,126.17,278,126.06,278.89z"/>
	<path d="M94.16,416.84c0.54,7.07,3.11,38.72,6.4,49.23c0.32,1.02,1.79,0.97,2.03-0.08l4.57-20.04c0.26-1.14,0.13-2.34-0.37-3.4
		l-12.14-25.84C94.54,416.45,94.14,416.55,94.16,416.84z"/>
	<g>
		<g>
			<path d="M127.17,709.1c3.27,6.94,5.94,14.13,8.34,21.4c2.38,7.28,4.42,14.67,6.07,22.17c1.64,7.5,2.89,15.1,3.45,22.79
				c0.26,3.85,0.35,7.71,0.14,11.57c-0.08,0.96-0.13,1.93-0.22,2.89c-0.12,0.96-0.23,1.92-0.37,2.87l-0.54,2.84
				c-0.24,0.94-0.49,1.87-0.75,2.78c0.04-0.96,0.12-1.91,0.17-2.86l0.05-2.85c-0.04-0.95-0.05-1.9-0.08-2.84
				c-0.04-0.94-0.11-1.89-0.16-2.83c-0.27-3.77-0.71-7.52-1.25-11.25c-1.1-7.47-2.58-14.89-4.2-22.29
				c-1.63-7.4-3.39-14.78-5.21-22.16C130.79,723.94,128.93,716.56,127.17,709.1z"/>
		</g>
	</g>
	<g>
		<g>
			<path d="M157.24,703c-0.43,7.68-0.96,15.29-1.47,22.91c-0.52,7.62-1.05,15.22-1.52,22.83l-0.2,2.85l-0.16,2.85l-0.36,5.71
				l-0.68,11.42c-0.5,7.62-0.85,15.25-1.51,22.92c-0.94-7.63-1.42-15.31-1.51-22.98c-0.09-3.84-0.01-7.68,0.06-11.52
				c0.12-3.84,0.27-7.67,0.53-11.5c0.48-7.66,1.28-15.3,2.36-22.9C153.87,718,155.23,710.43,157.24,703z"/>
		</g>
	</g>
	<path d="M134.27,809.1c0.38-0.7,1.44-0.43,1.45,0.36c0.11,6.9,0.94,26.72,6.7,26c5.66-0.71,8-18.96,8.68-25.78
		c0.05-0.52,0.79-0.58,0.93-0.08c2.06,7.44,7.61,29.28,2.18,31.08c-6.56,2.18-10.54,3.3-27.04,0
		C126.2,840.49,130.28,816.5,134.27,809.1z"/>
	<path d="M187.53,57.24h-5.95l0.73,49.82c0,0,6.25-5.52,27.89-8.42C210.19,98.63,184.78,94.71,187.53,57.24z"/>
	<path d="M225.75,130.21c-3.33,5.34-10.45,17.68-12.15,28.01c-0.28,1.72,1.1,3.26,2.84,3.18c8.66-0.39,31.96-1.94,31.96-7.14
		c0-5.09-13.26-19.02-18.67-24.48C228.56,128.6,226.62,128.82,225.75,130.21z"/>
	<path d="M281.35,257.82c0.92,0.69,2.23-0.01,2.16-1.16c-0.4-6.48-2.81-21.5-12.14-17.87C262.17,242.36,275.79,253.63,281.35,257.82
		z"/>
	<path d="M298.35,253.6c0,0,33.11,70.88,29.63,82.2"/>
	<path d="M295.16,257.38c0.29,0.87,23.82,51.7,20.91,62.45c-2.69,9.94-24.1-48.97-23.02-61.61
		C293.14,257.17,294.38,256.67,295.16,257.38L295.16,257.38z"/>
	<path d="M283.57,264.93l-13.83-4.44c-1.18-0.38-2.2,0.89-1.57,1.96c6.55,11.12,29.46,49.42,38.65,57.22
		c0.59,0.5,1.47-0.11,1.19-0.84C304.23,308.79,287.99,266.35,283.57,264.93z"/>
	<path d="M211.21,282.65c0,0-15.78-11.58-26.74-26.05c-0.7-0.92-2.17-0.42-2.17,0.73v58.8c0,1.18,1.41,1.78,2.25,0.96
		C192.1,309.76,215.7,286.21,211.21,282.65z"/>
	<path d="M223.94,278.56l2.81,23.16c0.19,1.59-1.44,2.79-2.89,2.11c-3.1-1.43-7.29-3.54-7.56-4.63c-0.39-1.56,1.81-15.64,5.87-21.1
		C222.7,277.38,223.83,277.67,223.94,278.56z"/>
	<path d="M255.84,416.51c-0.54,7.07-3.11,38.72-6.4,49.23c-0.32,1.02-1.79,0.97-2.03-0.08l-4.57-20.04
		c-0.26-1.14-0.13-2.34,0.37-3.4l12.14-25.84C255.46,416.12,255.86,416.22,255.84,416.51z"/>
	<g>
		<g>
			<path d="M222.83,708.77c-1.76,7.46-3.62,14.84-5.43,22.23c-1.82,7.38-3.59,14.76-5.21,22.16c-1.62,7.4-3.1,14.82-4.2,22.29
				c-0.54,3.74-0.99,7.49-1.25,11.25c-0.05,0.94-0.12,1.89-0.16,2.83c-0.02,0.94-0.04,1.89-0.08,2.84l0.05,2.85
				c0.05,0.95,0.13,1.9,0.17,2.86c-0.26-0.92-0.51-1.85-0.75-2.78l-0.54-2.84c-0.13-0.95-0.25-1.91-0.37-2.87
				c-0.1-0.96-0.15-1.92-0.22-2.89c-0.21-3.86-0.12-7.72,0.14-11.57c0.56-7.69,1.81-15.3,3.45-22.79c1.65-7.5,3.69-14.89,6.07-22.17
				C216.89,722.9,219.56,715.71,222.83,708.77z"/>
		</g>
	</g>
	<path d="M215.73,808.77c-0.38-0.7-1.44-0.43-1.45,0.36c-0.11,6.9-0.94,26.72-6.7,26c-5.66-0.71-8-18.96-8.68-25.78
		c-0.05-0.52-0.79-0.58-0.93-0.08c-2.06,7.44-7.61,29.28-2.18,31.08c6.56,2.18,10.54,3.3,27.04,0
		C223.8,840.16,219.72,816.17,215.73,808.77z"/>
	<g>
		<g>
			<path d="M192.76,702.67c2.01,7.43,3.36,15,4.47,22.6c1.09,7.6,1.88,15.24,2.36,22.9c0.26,3.83,0.41,7.67,0.53,11.5
				c0.07,3.84,0.15,7.68,0.06,11.52c-0.09,7.68-0.58,15.35-1.51,22.98c-0.67-7.67-1.01-15.29-1.51-22.92l-0.68-11.42l-0.36-5.71
				l-0.16-2.85l-0.2-2.85c-0.47-7.61-1-15.22-1.52-22.83C193.72,717.97,193.2,710.35,192.76,702.67z"/>
		</g>
	</g>
</g>
<g id="hamstrings">
	<path d="M145.47,420.66c0,0,13.51-13.07,17.86-11.76c4.36,1.31,4.36,47.93,2.18,56.64c-2.18,8.71-7.41,47.93-7.41,47.93
		S141.84,423.97,145.47,420.66z"/>
	<path d="M125.34,433.88c1.2-0.34,2.32,0.74,2,1.95c-2.6,9.62-11.23,44.6-7.13,70.66l4.61,29.32c0.12,0.78,0.15,1.57,0.08,2.36
		l-1.05,12.3c-0.05,0.58-0.87,0.65-1.01,0.09c-3.17-12.66-15.26-61.87-15.26-75.88C107.57,459.36,108.75,438.52,125.34,433.88z"/>
	<path d="M136.78,430.85c-5.82,17.23-27.92,91.22,6.1,132.11c0.7,0.84,2.06,0.35,2.06-0.74v-85.5c0-0.78-0.05-1.55-0.16-2.32
		l-6.17-43.39C138.47,430.03,137.1,429.9,136.78,430.85z"/>
	<path d="M150.92,500.23c-0.8,14.85-3.33,66.83-0.15,77.58c0.11,0.38,0.64,0.4,0.78,0.03c1.22-3.14,4.78-13.45,4.4-26.46
		c-0.36-12.66-3.27-40.77-4.38-51.16C151.52,499.81,150.94,499.82,150.92,500.23z"/>
	<path d="M204.53,420.33c0,0-13.51-13.07-17.86-11.76c-4.36,1.31-4.36,47.93-2.18,56.64s7.41,47.93,7.41,47.93
		S208.16,423.65,204.53,420.33z"/>
	<path d="M224.66,433.56c-1.2-0.34-2.32,0.74-2,1.95c2.6,9.62,11.23,44.6,7.13,70.66l-4.61,29.32c-0.12,0.78-0.15,1.57-0.08,2.36
		l1.05,12.3c0.05,0.58,0.87,0.65,1.01,0.09c3.17-12.66,15.26-61.87,15.26-75.88C242.43,459.03,241.25,438.19,224.66,433.56z"/>
	<path d="M213.22,430.52c5.82,17.23,27.92,91.22-6.1,132.11c-0.7,0.84-2.06,0.35-2.06-0.74v-85.5c0-0.78,0.05-1.55,0.16-2.32
		l6.17-43.39C211.53,429.7,212.9,429.58,213.22,430.52z"/>
	<path d="M199.09,499.9c0.8,14.85,3.33,66.83,0.15,77.58c-0.11,0.38-0.64,0.4-0.78,0.03c-1.22-3.14-4.78-13.45-4.4-26.46
		c0.36-12.66,3.27-40.77,4.38-51.16C198.48,499.49,199.06,499.5,199.09,499.9z"/>
</g>
<g id="Glutes">
	<path d="M98.6,357.09c4.57-6.11,19.7-23.44,46.74-27.16c1.16-0.16,1.68-1.55,0.88-2.42c-5.8-6.28-23.63-23.87-31.83-12.29
		c-9.32,13.16-14.89,26.71-16.95,41.38C97.35,357.27,98.2,357.62,98.6,357.09z"/>
	<path d="M164.51,335.29c1.77-0.03,3.24,1.35,3.3,3.12c0.31,8.66,0.5,17.32,0.48,25.98c-0.01,4.98-0.07,9.96-0.33,14.94
		c-0.18,3.5-0.13,7.11-1.11,10.51c-0.97,3.36-3.31,6.08-5.65,8.6c-4.86,5.26-10.85,9.36-17.15,12.71
		c-8.2,4.35-19.42,6.33-26.55,12.58c-2.86,2.51-5.52,5.66-5.62,8.74c-0.01,0.2-0.26,0.27-0.35,0.09
		c-7-13.44-12.91-28.29-14.96-43.36c-0.98-7.15-0.85-14.83,2.25-21.48c3.64-7.82,10.85-11.14,17.81-15.48
		C130.86,343.38,147.33,335.6,164.51,335.29z"/>
	<path d="M251.4,356.76c-4.57-6.11-19.7-23.44-46.74-27.16c-1.16-0.16-1.68-1.55-0.88-2.42c5.8-6.28,23.63-23.87,31.83-12.29
		c9.32,13.16,14.89,26.71,16.95,41.38C252.65,356.94,251.8,357.3,251.4,356.76z"/>
	<path d="M185.49,334.96c-1.77-0.03-3.24,1.35-3.3,3.12c-0.31,8.66-0.5,17.32-0.48,25.98c0.01,4.98,0.07,9.96,0.33,14.94
		c0.18,3.5,0.13,7.11,1.11,10.51c0.97,3.36,3.31,6.08,5.65,8.6c4.86,5.26,10.85,9.36,17.15,12.71c8.2,4.35,19.42,6.33,26.55,12.58
		c2.86,2.51,5.52,5.66,5.62,8.74c0.01,0.2,0.26,0.27,0.35,0.09c7-13.44,12.91-28.29,14.96-43.36c0.98-7.15,0.85-14.83-2.25-21.48
		c-3.64-7.82-10.85-11.14-17.81-15.48C219.14,343.05,202.67,335.27,185.49,334.96z"/>
</g>
<g id="Calfs">
	<path d="M130.13,566.5l-14.15,101.89c-0.37,2.65,0.21,5.35,1.64,7.62l15.31,24.27c0.5,0.79,1.71,0.44,1.71-0.5V567.43
		c0-0.52-0.21-1.01-0.58-1.37l-0.68-0.67C132.26,564.28,130.35,564.93,130.13,566.5z"/>
	<path d="M141.35,571.38c-0.14-0.35-0.66-0.25-0.66,0.13c0.11,14.16,0.95,105.76,4.25,110.58c3.58,5.23,14.91,24.84,16.65,3.92
		c1.74-20.91-2.77-60.56-9.01-81.48C147.63,587.91,143.03,575.69,141.35,571.38z"/>
	<path d="M219.87,566.17l14.15,101.89c0.37,2.65-0.21,5.35-1.64,7.62l-15.31,24.27c-0.5,0.79-1.71,0.44-1.71-0.5V567.1
		c0-0.52,0.21-1.01,0.58-1.37l0.68-0.67C217.74,563.95,219.65,564.6,219.87,566.17z"/>
	<path d="M208.65,571.05c0.14-0.35,0.66-0.25,0.66,0.13c-0.11,14.16-0.95,105.76-4.25,110.58c-3.58,5.23-14.91,24.84-16.65,3.92
		c-1.74-20.91,2.77-60.56,9.01-81.48C202.37,587.58,206.97,575.37,208.65,571.05z"/>
</g>
<g id="Lats">
	<path d="M117.98,171.72c0,0,17.67,0,17.69,0c5.62,0,9.14,4.53,12.85,8.13c6.61,6.4,14.12,12.59,18.42,20.89
		c4.39,8.5,5.74,18.3,3.17,27.58c-2.19,7.9-7.26,14.81-11.74,21.55c-4.32,6.51-9.69,12.78-16.48,16.79c-0.67,0.4-1.36,0.77-2.06,1.1
		c-2.45,1.15-5.31-0.41-5.61-3.1c-1.83-16.24-8.51-70.32-18.13-89.9C115.4,173.35,116.42,171.72,117.98,171.72z"/>
	<path d="M232.02,171.4c0,0-17.67,0-17.69,0c-5.62,0-9.14,4.53-12.85,8.13c-6.61,6.4-14.12,12.59-18.42,20.89
		c-4.39,8.5-5.74,18.3-3.17,27.58c2.19,7.9,7.26,14.81,11.74,21.55c4.32,6.51,9.69,12.78,16.48,16.79c0.67,0.4,1.36,0.77,2.06,1.1
		c2.45,1.15,5.31-0.41,5.61-3.1c1.83-16.24,8.51-70.32,18.13-89.9C234.6,173.03,233.58,171.4,232.02,171.4z"/>
</g>
<g id="Triceps">
	<path d="M93.7,155.31c-4.58,4.06-12.18,16.51-7.78,53.6l1.02,22.42c0.04,0.99,1.34,1.32,1.85,0.48
		c3.26-5.28,10.12-17.48,10.78-27.85c0.71-11.2-1.62-38.02-2.48-47.31C96.94,154.99,94.96,154.2,93.7,155.31z"/>
	<path d="M79.54,170.56c0,0-13.07,34.57-10.17,60.42"/>
	<g>
		<g>
			<path d="M79.54,196.12c0.25,2.93,0.3,5.84,0.3,8.75c-0.01,2.91-0.09,5.82-0.24,8.72c-0.15,2.9-0.36,5.81-0.66,8.7
				c-0.3,2.9-0.65,5.79-1.21,8.68c-0.25-2.93-0.3-5.84-0.31-8.75c0.01-2.91,0.09-5.82,0.25-8.72c0.15-2.9,0.37-5.81,0.66-8.7
				C78.64,201.9,78.98,199.01,79.54,196.12z"/>
		</g>
	</g>
	<path d="M256.3,154.98c4.58,4.06,12.18,16.51,7.78,53.6L263.06,231c-0.04,0.99-1.33,1.32-1.85,0.48
		c-3.26-5.28-10.12-17.48-10.78-27.85c-0.71-11.2,1.62-38.02,2.48-47.31C253.06,154.66,255.04,153.87,256.3,154.98z"/>
	<path d="M270.46,170.23c0,0,13.07,34.57,10.17,60.42"/>
	<g>
		<g>
			<path d="M270.46,195.8c0.55,2.88,0.9,5.78,1.2,8.68c0.29,2.9,0.51,5.8,0.66,8.7c0.15,2.9,0.24,5.81,0.25,8.72
				c0,2.91-0.05,5.83-0.31,8.75c-0.55-2.88-0.9-5.78-1.21-8.68c-0.29-2.9-0.51-5.8-0.66-8.7c-0.15-2.9-0.23-5.81-0.24-8.72
				C270.17,201.64,270.21,198.72,270.46,195.8z"/>
		</g>
	</g>
</g>
<g id="Rear_Delts">
	<path d="M114.53,118.35L82.7,155.4c-0.98,1.14-2.85,0.68-3.18-0.79c-1.91-8.48-5.23-30.15,8.43-37.79
		c13.07-7.31,22.42-3.47,26.13-1.24C115.06,116.17,115.27,117.49,114.53,118.35z"/>
	<path d="M235.47,118.03l31.83,37.04c0.98,1.14,2.85,0.68,3.18-0.79c1.91-8.48,5.23-30.15-8.43-37.79
		c-13.07-7.31-22.42-3.47-26.13-1.24C234.94,115.85,234.73,117.17,235.47,118.03z"/>
</g>
<g id="Traps">
	<path d="M108.84,107.27c6.88-0.66,43.31-3.46,58.21,9.94c1.82,1.64,2.82,4,2.82,6.45v59.26c0,1.5-1.75,2.33-2.9,1.37
		c-6.59-5.49-22.88-21.34-33.11-50.91c0,0-7.52-23.95-25.01-25.9C108.72,107.46,108.71,107.28,108.84,107.27z"/>
	<path d="M241.16,106.94c-6.88-0.66-43.31-3.46-58.21,9.94c-1.82,1.64-2.82,4-2.82,6.45v59.26c0,1.5,1.75,2.33,2.9,1.37
		c6.59-5.49,22.88-21.34,33.11-50.91c0,0,7.52-23.95,25.01-25.9C241.28,107.14,241.29,106.95,241.16,106.94z"/>
</g>
</svg>
