<?xml version="1.0" encoding="utf-8"?>
<!-- Generator: Adobe Adobe Illustrator 29.2.0, SVG Export Plug-In . SVG Version: 6.00 Build 0)  -->
<svg version="1.1" id="Layer_1" xmlns="http://www.w3.org/2000/svg" xmlns:xlink="http://www.w3.org/1999/xlink" x="0px" y="0px"
	 viewBox="0 0 350 900" style="enable-background:new 0 0 350 900;" xml:space="preserve">
<style type="text/css">
	.st0{fill:#575756;}
	.st1{fill:#FF4C4C;}
</style>
<g id="Background">
	<path class="st0" d="M88.22,464.11c-3,14.67-5.61,46.47,7.82,101.09c0.53,2.17,3.72,1.84,3.78-0.39l1.41-52
		c0.2-7.4-0.99-14.77-3.43-21.76c-2.5-7.16-5.5-17.25-6.51-26.78C91.09,462.51,88.58,462.37,88.22,464.11z"/>
	<path class="st0" d="M145.9,484.99c4.21-0.61,10.45-1.73,15.42-3.59c2.94-1.1,6.14,0.63,6.93,3.67c1.32,5.09,2.24,13-0.78,22.07
		c0,0-3.98,9.94-3.49,18.83c0.14,2.56,0.18,5.11-0.11,7.66c-0.45,4-1.28,9.88-2.68,14.99c-0.61,2.24-3.89,1.93-4.09-0.39
		c-0.99-11.49-3.67-31.75-10.7-44.58c-0.86-1.57-1.7-3.15-2.4-4.8c-0.86-2.04-1.92-4.84-2.54-7.5
		C140.78,488.34,142.87,485.43,145.9,484.99z"/>
	<path class="st0" d="M154.06,552.75c0.16,1.19,0.32,2.42,0.48,3.68c1.2,9.97,0.92,20.06-0.74,29.97
		c-1.21,7.21-2.81,17.73-3.82,28.03c0,0-1.78,19.25-4.5,30.65c-0.6,2.52-4.17,2.54-4.84,0.04c-2.59-9.62-5.66-27.38,0.7-43.66
		c0,0,7.56-18.39,10.03-48.62C151.5,551.23,153.84,551.15,154.06,552.75z"/>
	<path class="st0" d="M110.75,375.9c-2.23,3.3-5.29,8.76-7.55,16.44c-0.89,3.04,2.51,5.56,5.18,3.84
		c7.05-4.55,18.2-11.49,28.27-16.54c2.48-1.25,2.22-4.91-0.42-5.75c-3.36-1.07-8.93-1.96-18.14-1.86
		C115.14,372.05,112.39,373.47,110.75,375.9z"/>
	<path class="st0" d="M107.02,321.64l-2.99,8.73c-0.32,0.93,0.72,1.74,1.55,1.21l5.39-3.49c0.43-0.28,0.59-0.84,0.38-1.3l-2.4-5.24
		C108.56,320.69,107.33,320.75,107.02,321.64z"/>
	<path class="st0" d="M112.82,332.95l1.17,2.85c0.26,0.64,0.2,1.37-0.18,1.95c-1.48,2.25-5.4,8.27-8.64,13.79
		c-1.09,1.85-3.92,1.08-3.92-1.07v-6.63c0-0.32,0.07-0.62,0.21-0.91c0.72-1.49,3.33-6.46,8-10.76
		C110.53,331.19,112.26,331.61,112.82,332.95z"/>
	<path class="st0" d="M119.74,344.37l3.87,6.42c1.8,2.99,1.85,6.84-0.21,9.65c-1.31,1.8-3.39,3.18-6.66,2.81
		c-3.2-0.37-6.48,0.49-9.28,1.66c-2.61,1.09-5.21-1.64-4.02-4.21c2.19-4.72,5.39-10.78,9.6-16.6
		C114.74,341.77,118.26,341.91,119.74,344.37z"/>
	<path class="st0" d="M171.33,288.7v96.24c0,2.57-2.89,4.04-5,2.56c-3.16-2.22-6.84-5.73-7.98-10.46
		c-1.54-6.42-14.94-13.03-22-16.11c-1.93-0.84-2.42-3.34-0.95-4.85c3.08-3.17,7.17-8.43,7.17-13.97c0,0,0.22-17.72,4.56-29.59
		c0,0,4.16-17.55,19.89-26.35C168.95,285.1,171.33,286.5,171.33,288.7z"/>
	<path class="st0" d="M158.71,94.6c-0.11-0.89-1.38-0.97-1.59-0.1c-1.39,5.74-5.84,15.47-10.49,22.42c-1.12,1.68,1,3.65,2.6,2.41
		C154.63,115.16,160.3,107.59,158.71,94.6z"/>
	<path class="st0" d="M85,197.43c-0.91-4.33,4-7.49,7.52-4.82c3.55,2.69,7.71,6.49,11.45,11.56c4.4,5.96,10.9,9.12,16.3,10.78
		c3.58,1.11,3.54,6.12-0.06,7.16c-3.94,1.14-9.08,1.71-15.43,0.61c-5.75-0.99-10.75-4.41-13.65-9.47
		C88.84,209.28,86.34,203.84,85,197.43z"/>
	<path class="st0" d="M87.9,179.57c1.24,1.97,3.12,5,4.56,7.54c0.55,0.98-0.55,2.05-1.52,1.49l-4.8-2.8
		c-1.17-0.68-1.86-1.98-1.73-3.33c0.08-0.81,0.24-1.74,0.56-2.61C85.43,178.59,87.17,178.42,87.9,179.57z"/>
	<path class="st0" d="M98.67,168.98l8.26-5.6c0.3-0.2,0.6-0.38,0.92-0.54c2.23-1.14,10.5-4.66,14.29,3.37
		c0.53,1.12,0.84,2.33,1.06,3.56l4.67,26.46c0,0,0.96,7.84,4.01,13c0.91,1.55-0.24,3.52-2.04,3.42c-3.09-0.18-8.02-1.43-15.29-5.78
		c-14.26-8.53-18.12-20.81-18.12-20.81s-0.52-1.3-1.36-2.98C92.58,178.11,94.08,172.09,98.67,168.98z"/>
	<path class="st0" d="M67.37,312.23c1.25-1.72,3.01-3.95,5.28-6.33c1.65-1.74,4.58-0.51,4.49,1.88c-0.16,4.04-0.55,9.34-1.45,13.68
		c-0.59,2.84-4.01,4.1-6.24,2.24c-0.76-0.64-1.52-1.41-2.18-2.34C65.31,318.63,65.4,314.94,67.37,312.23z"/>
	<path class="st0" d="M43.61,298.42c-1.01-1.84-3.74-1.35-4.1,0.72c-0.7,4.02-0.93,10,1.5,16.89c0,0,2.77,6.92,4.5,12.64
		c0.59,1.94,3.31,2.02,3.99,0.11c1.34-3.75,2.63-8.37,2.27-11.58C51.29,312.97,46.64,303.94,43.61,298.42z"/>
	<path class="st0" d="M25.43,354.56c-2.16,14.23-6.03,42.15-6.4,61.51c-0.03,1.4,1.98,1.66,2.3,0.3c2.82-12.01,7.25-35.6,6.15-61.69
		C27.43,353.44,25.62,353.33,25.43,354.56z"/>
	<path class="st0" d="M38.23,320.13c1.37,5.14,3.08,11.29,4.45,15.42c0.94,2.83,1.35,5.8,1.25,8.78
		c-0.29,8.55-1.37,25.87-5.33,37.62c-3.26,9.67-6.96,23.51-9.4,33.04c-0.28,1.09-1.89,0.81-1.8-0.31l7.62-94.26
		C35.17,318.59,37.76,318.35,38.23,320.13z"/>
	<path class="st0" d="M57.77,330.84c0.02-0.06,0.03-0.12,0.05-0.18c0.7-2.56,3.51-3.95,5.92-2.84c2.05,0.95,4.29,2.48,5.86,4.95
		c2.42,3.82,2.2,8.74-0.12,12.63c-1.99,3.32-5.18,9.71-8.38,20.49c-1.06,3.56-2.33,7.05-3.76,10.48l-19.47,46.7
		c-0.51,1.22-2.34,0.67-2.1-0.62l9.67-52.24c0,0,3.05-18.79,7.82-28.03C55.11,338.55,56.68,334.77,57.77,330.84z"/>
	<path class="st0" d="M239.25,375.9c2.23,3.3,5.29,8.76,7.55,16.44c0.89,3.04-2.51,5.56-5.18,3.84
		c-7.05-4.55-18.2-11.49-28.27-16.54c-2.48-1.25-2.22-4.91,0.42-5.75c3.36-1.07,8.93-1.96,18.14-1.86
		C234.86,372.05,237.61,373.47,239.25,375.9z"/>
	<path class="st0" d="M195.94,552.75c-0.16,1.19-0.32,2.42-0.48,3.68c-1.2,9.97-0.92,20.06,0.74,29.97
		c1.21,7.21,2.81,17.73,3.82,28.03c0,0,1.78,19.25,4.5,30.65c0.6,2.52,4.17,2.54,4.84,0.04c2.59-9.62,5.66-27.38-0.7-43.66
		c0,0-7.56-18.39-10.03-48.62C198.5,551.23,196.16,551.15,195.94,552.75z"/>
	<path class="st0" d="M261.78,464.11c3,14.67,5.61,46.47-7.81,101.09c-0.53,2.17-3.72,1.84-3.78-0.39l-1.41-52
		c-0.2-7.4,0.99-14.77,3.43-21.76c2.5-7.16,5.5-17.25,6.51-26.78C258.91,462.51,261.42,462.37,261.78,464.11z"/>
	<path class="st0" d="M242.98,321.64l2.99,8.73c0.32,0.93-0.72,1.74-1.55,1.21l-5.39-3.49c-0.43-0.28-0.59-0.84-0.38-1.3l2.4-5.24
		C241.44,320.69,242.67,320.75,242.98,321.64z"/>
	<path class="st0" d="M191.29,94.6c0.11-0.89,1.38-0.97,1.59-0.1c1.39,5.74,5.84,15.47,10.49,22.42c1.12,1.68-1,3.65-2.6,2.41
		C195.37,115.16,189.7,107.59,191.29,94.6z"/>
	<path class="st0" d="M204.1,484.99c-4.21-0.61-10.45-1.73-15.42-3.59c-2.94-1.1-6.14,0.63-6.93,3.67c-1.32,5.09-2.24,13,0.78,22.07
		c0,0,3.98,9.94,3.49,18.83c-0.14,2.56-0.18,5.11,0.11,7.66c0.45,4,1.28,9.88,2.68,14.99c0.61,2.24,3.89,1.93,4.09-0.39
		c0.99-11.49,3.67-31.75,10.7-44.58c0.86-1.57,1.7-3.15,2.4-4.8c0.86-2.04,1.92-4.84,2.54-7.5
		C209.22,488.34,207.13,485.43,204.1,484.99z"/>
	<path class="st0" d="M230.26,344.37l-3.87,6.42c-1.8,2.99-1.85,6.84,0.21,9.65c1.31,1.8,3.39,3.18,6.66,2.81
		c3.2-0.37,6.48,0.49,9.28,1.66c2.61,1.09,5.21-1.64,4.02-4.21c-2.19-4.72-5.39-10.78-9.6-16.6
		C235.26,341.77,231.74,341.91,230.26,344.37z"/>
	<path class="st0" d="M237.18,332.95l-1.17,2.85c-0.26,0.64-0.2,1.37,0.18,1.95c1.48,2.25,5.4,8.27,8.64,13.79
		c1.09,1.85,3.92,1.08,3.92-1.07v-6.63c0-0.32-0.07-0.62-0.21-0.91c-0.72-1.49-3.32-6.46-8-10.76
		C239.47,331.19,237.74,331.61,237.18,332.95z"/>
	<path class="st0" d="M178.67,288.7v96.24c0,2.57,2.89,4.04,5,2.56c3.16-2.22,6.84-5.73,7.98-10.46c1.54-6.42,14.94-13.03,22-16.11
		c1.93-0.84,2.42-3.34,0.95-4.85c-3.08-3.17-7.17-8.43-7.17-13.97c0,0-0.22-17.72-4.56-29.59c0,0-4.16-17.55-19.89-26.35
		C181.05,285.1,178.67,286.5,178.67,288.7z"/>
	<path class="st0" d="M265.01,197.43c0.91-4.33-4-7.49-7.52-4.82c-3.55,2.69-7.71,6.49-11.45,11.56c-4.4,5.96-10.9,9.12-16.3,10.78
		c-3.58,1.11-3.54,6.12,0.06,7.16c3.94,1.14,9.08,1.71,15.43,0.61c5.75-0.99,10.75-4.41,13.65-9.47
		C261.16,209.28,263.66,203.84,265.01,197.43z"/>
	<path class="st0" d="M262.1,179.57c-1.24,1.97-3.12,5-4.56,7.54c-0.55,0.98,0.55,2.05,1.52,1.49l4.8-2.8
		c1.17-0.68,1.86-1.98,1.73-3.33c-0.08-0.81-0.24-1.74-0.56-2.61C264.57,178.59,262.83,178.42,262.1,179.57z"/>
	<path class="st0" d="M251.33,168.98l-8.26-5.6c-0.3-0.2-0.6-0.38-0.92-0.54c-2.23-1.14-10.5-4.66-14.29,3.37
		c-0.53,1.12-0.84,2.33-1.06,3.56l-4.67,26.46c0,0-0.96,7.84-4.01,13c-0.92,1.55,0.24,3.52,2.04,3.42
		c3.09-0.18,8.02-1.43,15.29-5.78c14.26-8.53,18.12-20.81,18.12-20.81s0.52-1.3,1.36-2.98
		C257.42,178.11,255.92,172.09,251.33,168.98z"/>
	<path class="st0" d="M282.63,312.23c-1.25-1.72-3.01-3.95-5.28-6.33c-1.65-1.74-4.58-0.51-4.49,1.88
		c0.16,4.04,0.55,9.34,1.45,13.68c0.59,2.84,4.01,4.1,6.24,2.24c0.76-0.64,1.52-1.41,2.18-2.34
		C284.69,318.63,284.6,314.94,282.63,312.23z"/>
	<path class="st0" d="M306.39,298.42c1.01-1.84,3.74-1.35,4.1,0.72c0.7,4.02,0.93,10-1.5,16.89c0,0-2.77,6.92-4.5,12.64
		c-0.59,1.94-3.31,2.02-3.99,0.11c-1.34-3.75-2.63-8.37-2.27-11.58C298.71,312.97,303.36,303.94,306.39,298.42z"/>
	<path class="st0" d="M324.57,354.56c2.16,14.23,6.03,42.15,6.4,61.51c0.03,1.4-1.98,1.66-2.3,0.3c-2.82-12.01-7.25-35.6-6.15-61.69
		C322.57,353.44,324.38,353.33,324.57,354.56z"/>
	<path class="st0" d="M311.77,320.13c-1.37,5.14-3.08,11.29-4.45,15.42c-0.94,2.83-1.35,5.8-1.25,8.78
		c0.29,8.55,1.37,25.87,5.33,37.62c3.26,9.67,6.96,23.51,9.4,33.04c0.28,1.09,1.89,0.81,1.8-0.31l-7.62-94.26
		C314.83,318.59,312.24,318.35,311.77,320.13z"/>
	<path class="st0" d="M292.23,330.84c-0.02-0.06-0.03-0.12-0.05-0.18c-0.7-2.56-3.51-3.95-5.92-2.84c-2.05,0.95-4.29,2.48-5.86,4.95
		c-2.42,3.82-2.2,8.74,0.12,12.63c1.99,3.32,5.18,9.71,8.38,20.49c1.06,3.56,2.33,7.05,3.76,10.48l19.47,46.7
		c0.51,1.22,2.34,0.67,2.1-0.62l-9.67-52.24c0,0-3.05-18.79-7.82-28.03C294.89,338.55,293.32,334.77,292.23,330.84z"/>
</g>
<g id="Hamstrings">
	<path class="st0" d="M98.21,631.52c-0.83-9.33-1.26-25.17,3.98-34.21c2.28-3.93,2.95-8.6,2.14-13.07
		c-0.01-0.07-0.03-0.15-0.04-0.22c-0.66-3.6-0.88-7.27-0.74-10.93l1.77-44.91c0,0-0.42-29.85,11.06-40.48
		c5.02-4.65,13.34-1.19,13.24,5.65c-0.02,1.3-0.23,2.74-0.72,4.32c0,0-5.39,26.42-7.36,89.42c0,0-0.7,9.82-4.56,16.13l-14.55,29.1
		C101.43,634.33,98.41,633.76,98.21,631.52z"/>
	<path class="st0" d="M132.43,494.95c-1.23,7.36-2.7,17.85-2.91,26.99c-0.18,7.59-0.77,15.17-1.54,22.72l-2.23,22
		c0,0-4.73,43.24,2.79,65.82c0.92,2.75,5.01,2.01,4.91-0.89c-0.48-13.2-0.06-35.72,6.69-52.94c0,0,10.52-32.61,9.82-47.34
		c-0.47-9.8-7.3-26.81-11.82-37.1C136.93,491.5,132.92,492.01,132.43,494.95z"/>
	<path class="st0" d="M251.79,631.52c0.83-9.33,1.25-25.17-3.98-34.21c-2.28-3.93-2.95-8.6-2.14-13.07
		c0.01-0.07,0.03-0.15,0.04-0.22c0.66-3.6,0.88-7.27,0.74-10.93l-1.77-44.91c0,0,0.42-29.85-11.06-40.48
		c-5.02-4.65-13.34-1.19-13.24,5.65c0.02,1.3,0.23,2.74,0.72,4.32c0,0,5.39,26.42,7.36,89.42c0,0,0.7,9.82,4.56,16.13l14.55,29.1
		C248.57,634.33,251.59,633.76,251.79,631.52z"/>
	<path class="st0" d="M217.57,494.95c1.23,7.36,2.7,17.85,2.91,26.99c0.18,7.59,0.77,15.17,1.54,22.72l2.23,22
		c0,0,4.73,43.24-2.79,65.82c-0.92,2.75-5.01,2.01-4.91-0.89c0.48-13.2,0.06-35.72-6.69-52.94c0,0-10.52-32.61-9.82-47.34
		c0.47-9.8,7.3-26.81,11.82-37.1C213.07,491.5,217.08,492.01,217.57,494.95z"/>
</g>
<g id="Calfs">
	<path class="st1" d="M104.36,761.07c1.18,5.63,2.76,12.55,4.08,16.29c0.92,2.6,1.77,5.23,2.41,7.91c1.36,5.73,3.3,14.63,3.9,21
		c0.08,0.88-1.16,1.16-1.45,0.32l-6.13-17.7c0,0-3.76-10.24-4.48-27.59C102.64,760.26,104.15,760.05,104.36,761.07z"/>
	<path class="st1" d="M136.01,777.35l-0.47,10.98c-0.22,5.04-0.88,10.04-1.99,14.96l-1.26,5.56c-0.22,0.96-1.63,0.78-1.6-0.2
		c0.22-7.38,1.07-19.33,4.01-31.48C134.89,776.39,136.05,776.54,136.01,777.35z"/>
	<path class="st1" d="M128.99,643.6l6.16,8.11c2.8,3.69,4.58,8.04,5.17,12.63l5.81,45.15c0.62,4.82,0.83,9.69,0.47,14.54
		c-0.27,3.59-0.85,7.55-2.03,10.92c0,0-1.93,6.4-3.79,13.97c-0.81,3.3-4.64,4.74-7.46,2.85c-3.02-2.02-6.62-5.22-9.49-10.15
		c-1.59-2.73-2.37-5.86-2.27-9.02c0.33-10.12,1.19-36.88,1.56-48.49c0.11-3.27,0.3-6.52,0.57-9.78c0.42-5.07,0.94-13.33,0.31-17.23
		c-0.51-3.18-0.05-8.29,0.48-12.29C124.77,642.56,127.62,641.79,128.99,643.6z"/>
	<path class="st1" d="M105.89,633.84l-1.41,2.16c-3.89,5.96-6.4,12.73-7.11,19.81c-0.34,3.41-1.02,7.53-2.34,11.93
		c-2.9,9.69-4.3,19.78-3.87,29.89c0.31,7.21,1.22,15.08,3.38,21.64l5.29,17.76c1.22,4.1,6.52,5.19,9.26,1.9l5.17-6.2
		c2.25-2.7,3.61-6.03,3.89-9.54c0.66-8.25,1.76-23.96,1.32-33.18c-0.2-4.16-0.33-8.33-0.27-12.5l0.37-27.45
		c0,0,0.04-8.47-6.88-16.64C110.85,631.28,107.45,631.47,105.89,633.84z"/>
	<path class="st1" d="M245.64,761.07c-1.18,5.63-2.76,12.55-4.08,16.29c-0.92,2.6-1.77,5.23-2.41,7.91c-1.36,5.73-3.3,14.63-3.9,21
		c-0.08,0.88,1.16,1.16,1.45,0.32l6.13-17.7c0,0,3.76-10.24,4.48-27.59C247.36,760.26,245.85,760.05,245.64,761.07z"/>
	<path class="st1" d="M213.99,777.35l0.47,10.98c0.22,5.04,0.88,10.04,1.99,14.96l1.26,5.56c0.22,0.96,1.63,0.78,1.6-0.2
		c-0.22-7.38-1.07-19.33-4.01-31.48C215.11,776.39,213.95,776.54,213.99,777.35z"/>
	<path class="st1" d="M221.01,643.6l-6.16,8.11c-2.8,3.69-4.58,8.04-5.17,12.63l-5.81,45.15c-0.62,4.82-0.83,9.69-0.47,14.54
		c0.27,3.59,0.85,7.55,2.03,10.92c0,0,1.93,6.4,3.79,13.97c0.81,3.3,4.64,4.74,7.46,2.85c3.02-2.02,6.62-5.22,9.49-10.15
		c1.59-2.73,2.37-5.86,2.27-9.02c-0.33-10.12-1.19-36.88-1.56-48.49c-0.11-3.27-0.3-6.52-0.57-9.78
		c-0.42-5.07-0.94-13.33-0.31-17.23c0.51-3.18,0.05-8.29-0.48-12.29C225.23,642.56,222.38,641.79,221.01,643.6z"/>
	<path class="st1" d="M244.11,633.84l1.41,2.16c3.89,5.96,6.4,12.73,7.11,19.81c0.34,3.41,1.02,7.53,2.34,11.93
		c2.9,9.69,4.3,19.78,3.87,29.89c-0.31,7.21-1.22,15.08-3.38,21.64l-5.29,17.76c-1.22,4.1-6.52,5.19-9.26,1.9l-5.17-6.2
		c-2.25-2.7-3.61-6.03-3.89-9.54c-0.66-8.25-1.76-23.96-1.32-33.18c0.2-4.16,0.33-8.33,0.27-12.5l-0.37-27.45
		c0,0-0.04-8.47,6.88-16.64C239.15,631.28,242.55,631.47,244.11,633.84z"/>
</g>
<g id="Glutes">
	<path class="st0" d="M152.93,383.47c2.2,1.65,4.61,3.64,6.99,5.96c7.32,7.13,11.41,16.95,11.41,27.16v39.28
		c0,7.98-4.26,15.41-11.25,19.27c-5.68,3.13-13.41,5.91-22.96,5.91c-13.11,0-23.38-10.01-29.51-18.04
		c-4.17-5.47-6.37-12.19-6.37-19.07V418.9c0-6.89,2.63-13.59,7.59-18.37c1.36-1.31,2.95-2.6,4.83-3.8l22.29-13.96
		C141.22,379.48,147.96,379.75,152.93,383.47z"/>
	<path class="st0" d="M197.07,383.47c-2.2,1.65-4.61,3.64-6.99,5.96c-7.32,7.13-11.41,16.95-11.41,27.16v39.28
		c0,7.98,4.26,15.41,11.25,19.27c5.68,3.13,13.4,5.91,22.96,5.91c13.11,0,23.38-10.01,29.51-18.04c4.17-5.47,6.37-12.19,6.37-19.07
		V418.9c0-6.89-2.63-13.59-7.59-18.37c-1.36-1.31-2.95-2.6-4.83-3.8l-22.29-13.96C208.78,379.48,202.04,379.75,197.07,383.47z"/>
</g>
<g id="Traps">
	<path class="st0" d="M171.33,267.99V249.4V93.52c0-3.18-4.34-4.19-5.69-1.31c-1.03,2.19-1.88,4.65-2.22,7.21
		c-0.36,2.71-0.86,5.4-1.81,7.97c-2.78,7.51-9.67,20.22-24.99,23.13c0,0-13.83,2.92-23.19,6.15c-3.54,1.22-4.63,5.69-1.99,8.35
		c6.61,6.67,17.01,18.7,16.77,28.28c0,0,3.7,32.98,18.03,55.59c2.44,3.85,4.82,7.71,6.95,11.74c3.91,7.4,9.89,19.01,14.01,28.24
		C168.15,271.01,171.33,270.32,171.33,267.99L171.33,267.99z"/>
	<path class="st0" d="M178.67,267.99V249.4V93.52c0-3.18,4.34-4.19,5.69-1.31c1.03,2.19,1.88,4.65,2.22,7.21
		c0.36,2.71,0.86,5.4,1.81,7.97c2.78,7.51,9.67,20.22,24.99,23.13c0,0,13.83,2.92,23.19,6.15c3.54,1.22,4.63,5.69,1.99,8.35
		c-6.61,6.67-17.01,18.7-16.77,28.28c0,0-3.7,32.98-18.03,55.59c-2.44,3.85-4.82,7.71-6.95,11.74c-3.91,7.4-9.89,19.01-14.01,28.24
		C181.85,271.01,178.67,270.32,178.67,267.99L178.67,267.99z"/>
</g>
<g id="Lats">
	<path class="st0" d="M140.76,225.63c4.94,7.71,12.76,20.87,17.16,33.12c2.73,7.59,2.03,15.99-1.88,23.04
		c-2.78,5-6.34,11.7-9.79,19.03c-6.6,14.01-9.96,29.33-9.96,44.81l0,0c0,1.05-0.32,2.07-0.92,2.93l0,0
		c-1.94,2.78-5.99,2.94-8.15,0.32c-4.33-5.25-10.53-14.23-12.52-24.57c-1.41-7.32-3.21-14.57-5.39-21.7l-16.3-53.29
		c-1.55-5.06-2.33-10.31-2.33-15.6l0,0c0-4.48,3.93-7.94,8.36-7.35c8.6,1.15,22.04,1.78,31.58-3.26
		C134.19,221.22,138.59,222.24,140.76,225.63z"/>
	<path class="st0" d="M209.24,225.63c-4.94,7.71-12.76,20.87-17.16,33.12c-2.73,7.59-2.03,15.99,1.88,23.04
		c2.78,5,6.34,11.7,9.79,19.03c6.6,14.01,9.96,29.33,9.96,44.81l0,0c0,1.05,0.32,2.07,0.92,2.93l0,0c1.94,2.78,5.99,2.94,8.15,0.32
		c4.33-5.25,10.53-14.23,12.52-24.57c1.41-7.32,3.21-14.57,5.39-21.7l16.3-53.29c1.55-5.06,2.33-10.31,2.33-15.6l0,0
		c0-4.48-3.93-7.94-8.36-7.35c-8.6,1.15-22.04,1.78-31.58-3.26C215.81,221.22,211.41,222.24,209.24,225.63z"/>
</g>
<g id="Rear_Delts">
	<path class="st0" d="M100.15,156.14c-2.61-0.99-5.65-2.39-7.55-4.1c0,0-11.27-7.13-20.15-1.52c0,0-14.85,9.37-20.62,28.47
		c-1.67,5.55-2.23,11.37-1.98,17.16l0.84,18.97c0.14,3.05,3.88,4.44,5.97,2.22l17.4-18.51c2.83-3.01,4.76-6.77,5.49-10.84
		c0.53-2.96,1.51-6.69,3.32-10.25c1.42-2.8,3.52-5.2,5.98-7.15l12.02-9.45C102.67,159.74,102.26,156.94,100.15,156.14z"/>
	<path class="st0" d="M249.85,156.14c2.61-0.99,5.65-2.39,7.55-4.1c0,0,11.27-7.13,20.15-1.52c0,0,14.85,9.37,20.62,28.47
		c1.67,5.55,2.23,11.37,1.98,17.16l-0.84,18.97c-0.14,3.05-3.88,4.44-5.97,2.22l-17.4-18.51c-2.83-3.01-4.76-6.77-5.49-10.84
		c-0.53-2.96-1.52-6.69-3.32-10.25c-1.42-2.8-3.52-5.2-5.98-7.15l-12.02-9.45C247.33,159.74,247.74,156.94,249.85,156.14z"/>
</g>
<g id="Triceps">
	<path class="st0" d="M76.48,206.53c-1.4,2.44-3.05,5.44-4.68,8.65c-4.27,8.44-6.92,17.61-7.83,27.02l-3.36,34.82
		c-0.28,2.94-0.43,5.88-0.43,8.83v10.51c0,1.71,0.38,3.4,1.12,4.94l0,0c0.75,1.58,2.75,2.08,4.17,1.05l0,0
		c3.04-2.22,5.44-5.21,6.95-8.67l8.69-19.95c2.64-6.06,4.21-12.53,4.61-19.13c0.77-12.71,1.26-34.1-2.75-47.35
		C82.06,204.28,78.02,203.83,76.48,206.53z"/>
	<path class="st0" d="M62.24,217.57c-4.91,4.31-11.29,13.04-11.68,29.38c-0.08,3.26-0.15,6.51-0.36,9.76
		c-0.43,6.62-1,17.96-0.54,26.34c0.09,1.57,2.32,1.77,2.7,0.24c1.82-7.46,4.42-19.52,5.02-29.48c0,0,2.69-21.67,7.64-34.25
		C65.69,217.86,63.63,216.36,62.24,217.57z"/>
	<path class="st0" d="M273.52,206.53c1.4,2.44,3.05,5.44,4.68,8.65c4.27,8.44,6.92,17.61,7.83,27.02l3.36,34.82
		c0.28,2.94,0.43,5.88,0.43,8.83v10.51c0,1.71-0.38,3.4-1.12,4.94l0,0c-0.75,1.58-2.75,2.08-4.17,1.05l0,0
		c-3.04-2.22-5.44-5.21-6.95-8.67l-8.69-19.95c-2.64-6.06-4.21-12.53-4.61-19.13c-0.77-12.71-1.26-34.1,2.75-47.35
		C267.94,204.28,271.98,203.83,273.52,206.53z"/>
	<path class="st0" d="M287.76,217.57c4.91,4.31,11.29,13.04,11.68,29.38c0.08,3.26,0.15,6.51,0.36,9.76
		c0.43,6.62,1,17.96,0.54,26.34c-0.09,1.57-2.32,1.77-2.7,0.24c-1.82-7.46-4.42-19.52-5.02-29.48c0,0-2.69-21.67-7.64-34.25
		C284.31,217.86,286.37,216.36,287.76,217.57z"/>
</g>
</svg>
