<svg version="1.1" id="Layer_1" xmlns="http://www.w3.org/2000/svg" xmlns:xlink="http://www.w3.org/1999/xlink" x="0px" y="0px" viewBox="0 0 500 400" style="enable-background:new 0 0 350 900;" xml:space="preserve">
<style type="text/css">
	.st0{fill:#575756;}
	.st1{fill:#FF4C4C;}
</style>
<g id="Background">
	<path class="st0" d="M172.4,110.23c-1.81-4.34-5.53-6.93-8.6-6.18c1.77,1.42,3.77,4.33,5.3,7.99c1.33,3.19,1.98,6.23,1.97,8.46
		C173.5,118.68,174.14,114.39,172.4,110.23z" fill="#333333"></path>
	<path class="st0" d="M150.73,100.48l12.24,45.23c0.17,0.61-0.65,1-1,0.46c-3.07-4.75-9.1-14.47-12.58-22.57
		c-1.49-3.47-1.96-7.29-1.3-11.01c0.56-3.15,1.19-7.53,1.37-11.95C149.49,99.89,150.54,99.76,150.73,100.48z" fill="#333333"></path>
	<path class="st0" d="M149.09,129.88v10.85c0,4.18,2.25,8.03,5.9,10.06c1.14,0.63,2.42,1.2,3.85,1.62c1.07,0.31,2.02-0.79,1.58-1.81
		c-1.59-3.66-5.02-11.29-10.03-21.03C150.06,128.93,149.09,129.16,149.09,129.88z" fill="#333333"></path>
	<path class="st0" d="M143.84,125.04l-4.29,18.28c-0.57,2.42-0.86,4.91-0.86,7.4l0,0c0,1.82,1.93,3,3.54,2.15l0,0
		c2.19-1.16,3.52-3.47,3.42-5.94l-0.83-21.79C144.81,124.56,143.98,124.48,143.84,125.04z" fill="#333333"></path>
	<path class="st0" d="M140.38,127.76c-3.07,3.44-10.54,9.83-26.46,14.53c-1.26,0.37-1.39,2.11-0.19,2.65
		c3.11,1.41,8.14,3.42,14.13,4.77c3.09,0.7,6.24-0.95,7.51-3.86c1.65-3.78,3.94-9.72,6.07-17.52
		C141.6,127.71,140.82,127.27,140.38,127.76z" fill="#333333"></path>
	<path class="st0" d="M55.43,183.42c-0.22,1.27-0.45,2.77-0.67,4.51c-1.09,8.56-1.11,17.24-0.1,25.81
		c0.39,3.32,0.74,7.33,0.72,10.89c-0.01,1.55,1.89,2.27,2.92,1.11l8.01-9c0.94-1.05,1.09-2.58,0.38-3.79
		c-2.62-4.52-8.67-16.15-9.98-29.44C56.64,182.74,55.56,182.66,55.43,183.42z" fill="#333333"></path>
	<path class="st0" d="M66.26,303.21c2.11,3.1,5.6,8.75,7.42,14.59c0.39,1.24,2.18,1.16,2.48-0.11c0.85-3.67,1.79-8.52,1.87-12.2
		c0.07-3.13,0.22-6.25,0.67-9.35c0.99-6.82,2.64-15.85,6.44-24.12c1.35-2.94,3.37-6.48,4.56-9.82c0.87-2.45,2.86-7.15-0.06-8.65
		c0,0-11.31,27.52-23.35,44.74C65.25,299.79,65.24,301.73,66.26,303.21z" fill="#333333"></path>
	<path class="st0" d="M93.45,208.66c-0.55,15.07-0.73,51.23,8.6,72.65c0.46,1.05,2,0.9,2.26-0.22c1.42-6,3.93-19,1.44-27.23
		c-1.09-3.6-2.22-7.19-3.02-10.87l-7.48-34.48C95.03,207.45,93.49,207.58,93.45,208.66z" fill="#333333"></path>
	<path class="st0" d="M108.03,233.45c2.47,2.73,7.4,6.28,17.15,8.88c1.2,0.32,1.51,1.89,0.5,2.61c-2.32,1.63-6.45,3.6-12.33,3
		c-6.21-0.63-7.63-8.18-7.86-13.44C105.42,233.12,107.11,232.43,108.03,233.45z" fill="#333333"></path>
	<path class="st0" d="M107.39,250.95c0.89,2,2.05,4.72,2.66,6.73c0.35,1.14,1.57,1.75,2.69,1.33c2.65-1.01,7.11-3.24,10.57-7.67
		c0.52-0.66-0.07-1.64-0.9-1.48c-3.36,0.62-9.73,1.45-13.85-0.11C107.8,249.47,107.05,250.21,107.39,250.95z" fill="#333333"></path>
	<path class="st0" d="M101.54,384.08c-0.47-1.44-2.53-1.4-2.93,0.06c-1.66,6.07-4.29,17.37-5,30.25c0,0-1.77,18.91-4.89,29.6
		c-1.93,6.62-3.13,13.45-3.05,20.35c0,0.11,0,0.21,0,0.32c0.03,2.04,2.95,2.4,3.51,0.43l5.14-18.15c2.06-7.29,4.33-14.51,6.83-21.67
		c0.04-0.13,0.09-0.25,0.13-0.38c4.53-13.06,4.68-27.25,0.39-40.38L101.54,384.08z" fill="#333333"></path>
	<path class="st0" d="M164.04,464.52l0.38,0.28c2.81,2.02,4.66,5.13,5.05,8.57c0.65,5.9,1.16,15.93-0.83,27.22l-7.78,49.27
		c-0.13,0.82-1.31,0.83-1.45,0.01c-0.04-0.26-0.09-0.53-0.13-0.81c-2-12.31-2.18-24.86-0.49-37.22c1.24-9.04,2.46-24.92-0.13-44.07
		C158.25,464.79,161.6,462.77,164.04,464.52z" fill="#333333"></path>
	<path class="st0" d="M118.96,394.7l5.34,8.39c0.51,0.8,0.78,1.73,0.78,2.67v11.06c0,1.21-1.65,1.58-2.15,0.49
		c-1.87-4.03-4.43-11.26-5.48-22.08C117.37,394.38,118.5,393.98,118.96,394.7z" fill="#333333"></path>
	<path class="st0" d="M129.59,409.07l3.54,4.38c1.65,2.04,2.54,4.58,2.49,7.2c-0.07,4.17-0.87,10.69-4.45,16.7
		c-0.55,0.93-1.98,0.66-2.17-0.41c-0.81-4.66-2.19-14.69-1.75-27.09C127.31,408.65,128.83,408.13,129.59,409.07z" fill="#333333"></path>
	<path class="st0" d="M141.17,423.46c0.26,0.26,0.53,0.53,0.81,0.81c3.07,3.07,4.33,7.51,3.33,11.73
		c-1.34,5.64-3.78,13.44-7.76,18.61c-0.95,1.23-2.93,0.67-3.16-0.87l-1.44-9.65c-0.22-1.5,0.06-3.02,0.84-4.32
		c1.78-2.99,4.95-9.14,5.24-15.48C139.09,423.2,140.4,422.69,141.17,423.46z" fill="#333333"></path>
	<path class="st0" d="M148.39,608.87c0-0.5-0.7-0.62-0.86-0.15c-1.42,4.19-4.51,12.5-8.63,18.84c-0.54,0.84-0.18,1.96,0.74,2.36l0,0
		c1.09,0.47,1.71,1.64,1.46,2.8c-0.27,1.31-0.66,3.16-1.11,5.22c-0.18,0.85,0.96,1.31,1.41,0.56l3.76-6.28
		c2.1-3.51,3.22-7.53,3.22-11.63V608.87z" fill="#333333"></path>
	<path class="st1" d="M140.52,665.29c0.17,4.01,0.76,10.59,2.68,17.2c2.7,9.31,4.36,18.91,4.29,28.6
		c-0.06,7.65-0.77,16.46-2.95,24.75c-0.63,2.4-3.52,3.38-5.5,1.88c-4.94-3.74-12.43-12.88-12.31-33.91c0,0-1.42-19.73,11.43-39.17
		C138.84,663.6,140.46,664.05,140.52,665.29z" fill="#333333"></path>
	<path class="st1" d="M132.15,735.05c1.55,2.14,3.75,4.54,6.64,6.14c1.56,0.87,2.33,2.69,1.87,4.42c-0.13,0.5-0.27,1.04-0.42,1.61
		c-2.1,8.02-3.65,16.19-4.64,24.43l-1.14,9.54c-0.12,1.02-1.59,1.05-1.74,0.03c-1.03-7.05-2.54-21.07-3.22-45.28
		C129.47,734.51,131.31,733.88,132.15,735.05z" fill="#333333"></path>
	<path class="st1" d="M104.96,634.92c-0.04-1.53-2.1-1.96-2.77-0.58c-2.63,5.41-6.06,15.76-4.7,31.42c0,0,4.82,70.49,24.66,119.41
		c0.67,1.65,3.15,0.98,2.89-0.79L109.6,680.56C109.6,680.56,105.56,656.4,104.96,634.92z" fill="#333333"></path>
	<path class="st1" d="M95.85,671.94c-0.36-1.45-2.52-1.16-2.46,0.34c0.75,17.97,3.81,61.6,16.21,92.23c0,0,7.32,21.62,9.64,34.81
		c0.16,0.93,1.53,0.88,1.62-0.06c0.33-3.34,0.34-7.62-0.94-11.27l-6.22-20.08l-3.94-14.89c-4.8-18.16-9.24-36.49-11.36-55.16
		C97.28,687.93,98.01,680.58,95.85,671.94z" fill="#333333"></path>
	<path class="st1" d="M91.48,691.65c-0.21-1.07-1.79-0.88-1.74,0.21c0.47,10.35,2.21,28.53,8.1,51.51c0,0,6.64,33.7,8.74,50.94
		c0.11,0.88,1.39,0.83,1.43-0.05c0.32-6.39,0.17-16.04-2.19-26.94C105.83,767.32,95.88,714.36,91.48,691.65z" fill="#333333"></path>
	<path class="st0" d="M177.6,110.23c1.81-4.34,5.53-6.93,8.6-6.18c-1.77,1.42-3.77,4.33-5.3,7.99c-1.33,3.19-1.98,6.23-1.97,8.46
		C176.5,118.68,175.86,114.39,177.6,110.23z" fill="#333333"></path>
	<path class="st0" d="M199.27,100.48l-12.24,45.23c-0.17,0.61,0.65,1,1,0.46c3.07-4.75,9.1-14.47,12.58-22.57
		c1.49-3.47,1.96-7.29,1.3-11.01c-0.56-3.15-1.19-7.53-1.37-11.95C200.51,99.89,199.46,99.76,199.27,100.48z" fill="#333333"></path>
	<path class="st0" d="M200.91,129.88v10.85c0,4.18-2.25,8.03-5.9,10.06c-1.14,0.63-2.42,1.2-3.85,1.62
		c-1.07,0.31-2.02-0.79-1.58-1.81c1.59-3.66,5.02-11.29,10.03-21.03C199.94,128.93,200.91,129.16,200.91,129.88z" fill="#333333"></path>
	<path class="st0" d="M206.16,125.04l4.29,18.28c0.57,2.42,0.86,4.91,0.86,7.4l0,0c0,1.82-1.93,3-3.54,2.15l0,0
		c-2.19-1.16-3.52-3.47-3.42-5.94l0.83-21.79C205.19,124.56,206.02,124.48,206.16,125.04z" fill="#333333"></path>
	<path class="st0" d="M209.62,127.76c3.07,3.44,10.54,9.83,26.46,14.53c1.26,0.37,1.39,2.11,0.19,2.65
		c-3.11,1.41-8.14,3.42-14.13,4.77c-3.09,0.7-6.24-0.95-7.51-3.86c-1.65-3.78-3.94-9.72-6.07-17.52
		C208.4,127.71,209.18,127.27,209.62,127.76z" fill="#333333"></path>
	<path class="st0" d="M256.55,208.66c0.55,15.07,0.73,51.23-8.6,72.65c-0.46,1.05-2,0.9-2.26-0.22c-1.42-6-3.93-19-1.44-27.23
		c1.09-3.6,2.22-7.19,3.02-10.87l7.48-34.48C254.97,207.45,256.51,207.58,256.55,208.66z" fill="#333333"></path>
	<path class="st0" d="M241.97,233.45c-2.47,2.73-7.4,6.28-17.15,8.88c-1.2,0.32-1.51,1.89-0.5,2.61c2.32,1.63,6.45,3.6,12.33,3
		c6.21-0.63,7.63-8.18,7.86-13.44C244.58,233.12,242.89,232.43,241.97,233.45z" fill="#333333"></path>
	<path class="st0" d="M242.61,250.95c-0.89,2-2.05,4.72-2.66,6.73c-0.35,1.14-1.57,1.75-2.69,1.33c-2.65-1.01-7.1-3.24-10.57-7.67
		c-0.52-0.66,0.07-1.64,0.9-1.48c3.36,0.62,9.73,1.45,13.85-0.11C242.2,249.47,242.95,250.21,242.61,250.95z" fill="#333333"></path>
	<path class="st0" d="M248.46,384.08c0.47-1.44,2.53-1.4,2.93,0.06c1.66,6.07,4.29,17.37,5,30.25c0,0,1.77,18.91,4.89,29.6
		c1.93,6.62,3.13,13.45,3.05,20.35c0,0.11,0,0.21,0,0.32c-0.03,2.04-2.95,2.4-3.51,0.43l-5.14-18.15
		c-2.06-7.29-4.33-14.51-6.83-21.67c-0.04-0.13-0.09-0.25-0.13-0.38c-4.53-13.06-4.68-27.25-0.39-40.38L248.46,384.08z" fill="#333333"></path>
	<path class="st0" d="M185.96,464.52l-0.38,0.28c-2.81,2.02-4.66,5.13-5.05,8.57c-0.65,5.9-1.17,15.93,0.83,27.22l7.78,49.27
		c0.13,0.82,1.31,0.83,1.45,0.01c0.04-0.26,0.09-0.53,0.13-0.81c2-12.31,2.18-24.86,0.49-37.22c-1.24-9.04-2.46-24.92,0.13-44.07
		C191.75,464.79,188.4,462.77,185.96,464.52z" fill="#333333"></path>
	<path class="st0" d="M231.04,394.7l-5.34,8.39c-0.51,0.8-0.78,1.73-0.78,2.67v11.06c0,1.21,1.65,1.58,2.15,0.49
		c1.87-4.03,4.43-11.26,5.48-22.08C232.63,394.38,231.5,393.98,231.04,394.7z" fill="#333333"></path>
	<path class="st0" d="M220.41,409.07l-3.54,4.38c-1.65,2.04-2.54,4.58-2.49,7.2c0.07,4.17,0.87,10.69,4.45,16.7
		c0.55,0.93,1.98,0.66,2.17-0.41c0.81-4.66,2.19-14.69,1.75-27.09C222.69,408.65,221.17,408.13,220.41,409.07z" fill="#333333"></path>
	<path class="st0" d="M208.83,423.46c-0.26,0.26-0.53,0.53-0.81,0.81c-3.07,3.07-4.33,7.51-3.33,11.73
		c1.34,5.64,3.78,13.44,7.76,18.61c0.95,1.23,2.93,0.67,3.16-0.87l1.44-9.65c0.22-1.5-0.06-3.02-0.84-4.32
		c-1.78-2.99-4.95-9.14-5.24-15.48C210.91,423.2,209.6,422.69,208.83,423.46z" fill="#333333"></path>
	<path class="st0" d="M201.61,608.87c0-0.5,0.7-0.62,0.86-0.15c1.42,4.19,4.51,12.5,8.63,18.84c0.54,0.84,0.18,1.96-0.74,2.36l0,0
		c-1.09,0.47-1.71,1.64-1.46,2.8c0.27,1.31,0.66,3.16,1.11,5.22c0.18,0.85-0.96,1.31-1.41,0.56l-3.76-6.28
		c-2.1-3.51-3.22-7.53-3.22-11.63V608.87z" fill="#333333"></path>
	<path class="st1" d="M209.48,665.29c-0.17,4.01-0.76,10.59-2.68,17.2c-2.7,9.31-4.36,18.91-4.29,28.6
		c0.06,7.65,0.77,16.46,2.95,24.75c0.63,2.4,3.52,3.38,5.5,1.88c4.94-3.74,12.43-12.88,12.31-33.91c0,0,1.42-19.73-11.43-39.17
		C211.16,663.6,209.54,664.05,209.48,665.29z" fill="#333333"></path>
	<path class="st1" d="M217.85,735.05c-1.55,2.14-3.75,4.54-6.64,6.14c-1.56,0.87-2.33,2.69-1.87,4.42c0.13,0.5,0.27,1.04,0.42,1.61
		c2.1,8.02,3.65,16.19,4.64,24.43l1.14,9.54c0.12,1.02,1.59,1.05,1.74,0.03c1.03-7.05,2.54-21.07,3.22-45.28
		C220.53,734.51,218.69,733.88,217.85,735.05z" fill="#333333"></path>
	<path class="st1" d="M245.04,634.92c0.04-1.53,2.1-1.96,2.77-0.58c2.63,5.41,6.06,15.76,4.7,31.42c0,0-4.82,70.49-24.66,119.41
		c-0.67,1.65-3.15,0.98-2.89-0.79l15.45-103.83C240.4,680.56,244.44,656.4,245.04,634.92z" fill="#333333"></path>
	<path class="st1" d="M254.15,671.94c0.36-1.45,2.52-1.16,2.46,0.34c-0.75,17.97-3.81,61.6-16.21,92.23c0,0-7.32,21.62-9.64,34.81
		c-0.16,0.93-1.53,0.88-1.62-0.06c-0.33-3.34-0.34-7.62,0.94-11.27l6.22-20.08l3.94-14.89c4.8-18.16,9.24-36.49,11.36-55.16
		C252.72,687.93,251.99,680.58,254.15,671.94z" fill="#333333"></path>
	<path class="st1" d="M258.52,691.65c0.21-1.07,1.79-0.88,1.74,0.21c-0.47,10.35-2.21,28.53-8.1,51.51c0,0-6.64,33.7-8.74,50.94
		c-0.11,0.88-1.39,0.83-1.43-0.05c-0.32-6.39-0.17-16.04,2.19-26.94C244.17,767.32,254.12,714.36,258.52,691.65z" fill="#333333"></path>
	<path class="st0" d="M294.57,183.42c0.22,1.27,0.45,2.77,0.67,4.51c1.09,8.56,1.11,17.24,0.1,25.81
		c-0.39,3.32-0.74,7.33-0.73,10.89c0.01,1.55-1.89,2.27-2.92,1.11l-8.01-9c-0.94-1.05-1.09-2.58-0.38-3.79
		c2.62-4.52,8.67-16.15,9.98-29.44C293.36,182.74,294.44,182.66,294.57,183.42z" fill="#333333"></path>
	<path class="st0" d="M283.74,303.21c-2.11,3.1-5.6,8.75-7.42,14.59c-0.39,1.24-2.18,1.16-2.48-0.11c-0.85-3.67-1.79-8.52-1.87-12.2
		c-0.07-3.13-0.22-6.25-0.67-9.35c-0.99-6.82-2.64-15.85-6.44-24.12c-1.35-2.94-3.37-6.48-4.56-9.82c-0.87-2.45-2.86-7.15,0.06-8.65
		c0,0,11.31,27.52,23.35,44.74C284.75,299.79,284.76,301.73,283.74,303.21z" fill="#333333"></path>
</g>
<g id="Biceps">
	<path class="st0" d="M72.63,216.54c0.46-0.83-0.61-1.67-1.29-1.01c-7.63,7.36-23.62,25.34-23.97,46.96
		c-0.32,19.6,2.92,31.94,4.96,37.7c0.26,0.72,1.32,0.52,1.28-0.25C52.98,287.98,53.02,251.73,72.63,216.54z" fill="#333333"></path>
	<path class="st0" d="M86.07,202.52c1.27-1.72,3.98-1.02,4.18,1.11c1.05,11.32,2.48,36.65-4.14,49.71
		c-6.58,12.98-18.95,33.5-24.56,42.7c-0.88,1.44-3.09,0.83-3.1-0.85C58.29,280.11,60.37,237.41,86.07,202.52z" fill="#333333"></path>
	<path class="st0" d="M277.37,216.54c-0.46-0.83,0.61-1.67,1.29-1.01c7.63,7.36,23.62,25.34,23.97,46.96
		c0.32,19.6-2.92,31.94-4.96,37.7c-0.26,0.72-1.32,0.52-1.28-0.25C297.02,287.98,296.98,251.73,277.37,216.54z" fill="#333333"></path>
	<path class="st0" d="M263.93,202.52c-1.27-1.72-3.98-1.02-4.18,1.11c-1.05,11.32-2.48,36.65,4.14,49.71
		c6.58,12.98,18.95,33.5,24.56,42.7c0.88,1.44,3.08,0.83,3.1-0.85C291.71,280.11,289.63,237.41,263.93,202.52z" fill="#333333"></path>
</g>
<g id="Delts">
	<path class="st0" d="M124.76,154.01c-3.35-1.31-8.74-3.8-16.65-8.47c-2.68-1.58-5.83-2.19-8.9-1.69
		c-9.98,1.61-31.53,7.66-38.08,30.11c-0.65,2.24-0.97,4.57-0.97,6.9V181c0,4.49,1.12,8.9,3.33,12.8c2.21,3.9,4.91,9.27,6.02,14
		c0.49,2.1,2.85,3.15,4.68,2.02c2.59-1.58,5.99-4.12,9.05-7.88c3.75-4.6,5.87-10.33,6.34-16.24c0.66-8.34,5.48-26.84,34.89-29.92
		C125.44,155.67,125.66,154.36,124.76,154.01z" fill="#333333"></path>
	<path class="st0" d="M225.24,154.01c3.35-1.31,8.74-3.8,16.65-8.47c2.68-1.58,5.83-2.19,8.9-1.69c9.98,1.61,31.53,7.66,38.08,30.11
		c0.65,2.24,0.97,4.57,0.97,6.9V181c0,4.49-1.12,8.9-3.33,12.8c-2.21,3.9-4.91,9.27-6.02,14c-0.49,2.1-2.85,3.15-4.68,2.02
		c-2.59-1.58-5.99-4.12-9.05-7.88c-3.75-4.6-5.87-10.33-6.34-16.24c-0.66-8.34-5.48-26.84-34.89-29.92
		C224.56,155.67,224.34,154.36,225.24,154.01z" fill="#333333"></path>
</g>
<g id="Forearms" fill="#FF0000">
	<path class="st0" d="M46.56,289.42c-0.66-2.75-4.17-3.65-6.03-1.51c-6.32,7.27-17.8,26.19-17.11,67.33c0,0,0.55,33.68-0.77,49.58
		c-0.06,0.69,0.91,0.9,1.13,0.24C30.4,385.61,52.97,316.01,46.56,289.42z" fill="#333333"></path>
	<path class="st0" d="M63.66,307.78c1.13,2.38,2.14,5.75,1.65,9.7c-0.22,1.8-0.85,3.52-1.66,5.14
		c-3.07,6.13-14.41,30.01-32.93,83.38c-0.24,0.69-1.27,0.43-1.13-0.28c4.18-21.51,16.53-80.77,28.9-98.38
		C59.8,305.46,62.68,305.71,63.66,307.78z" fill="#333333"></path>
	<path class="st0" d="M66.48,325.38c0.77-1.82,3.37-1.83,4.1,0.01c1.55,3.92,2.7,10.39-0.91,18.58c0,0-24.98,55.08-31.28,70.07
		c-0.26,0.62-1.2,0.38-1.12-0.29C38.26,405.25,43.11,380.71,66.48,325.38z" fill="#333333"></path>
	<path class="st0" d="M303.44,289.42c0.66-2.75,4.17-3.65,6.03-1.51c6.32,7.27,17.8,26.19,17.11,67.33c0,0-0.55,33.68,0.77,49.58
		c0.06,0.69-0.91,0.9-1.13,0.24C319.6,385.61,297.03,316.01,303.44,289.42z" fill="#333333"></path>
	<path class="st0" d="M286.34,307.78c-1.13,2.38-2.14,5.75-1.65,9.7c0.22,1.8,0.85,3.52,1.66,5.14
		c3.07,6.13,14.41,30.01,32.93,83.38c0.24,0.69,1.27,0.43,1.13-0.28c-4.18-21.51-16.53-80.77-28.9-98.38
		C290.2,305.46,287.32,305.71,286.34,307.78z" fill="#333333"></path>
	<path class="st0" d="M283.52,325.38c-0.77-1.82-3.37-1.83-4.1,0.01c-1.55,3.92-2.7,10.39,0.91,18.58c0,0,24.98,55.08,31.28,70.07
		c0.26,0.62,1.2,0.38,1.12-0.29C311.74,405.25,306.89,380.71,283.52,325.38z" fill="#333333"></path>
</g>
<g id="Chest">
	<path class="st0" d="M151.77,157.42c-15.24-0.74-49.47,0.13-57.09,22.05c-1.67,4.8-1.64,10.02-0.35,14.93
		c3.24,12.27,13.52,43.34,34.87,45.79c9.89,1.13,17.61,0.78,23.4-0.12c8.46-1.31,15.09-7.94,16.44-16.39
		c2.42-15.1,4.7-41.31-4.46-58.23C162.01,160.72,157.14,157.69,151.77,157.42z" fill="#333333"></path>
	<path class="st0" d="M198.23,157.42c15.24-0.74,49.47,0.13,57.09,22.05c1.67,4.8,1.64,10.02,0.35,14.93
		c-3.24,12.27-13.52,43.34-34.87,45.79c-9.89,1.13-17.61,0.78-23.4-0.12c-8.46-1.31-15.09-7.94-16.44-16.39
		c-2.42-15.1-4.7-41.31,4.46-58.23C187.99,160.72,192.86,157.69,198.23,157.42z" fill="#333333"></path>
</g>
<g id="Quads">
	<path class="st0" d="M110.65,390.68l0.43,0.52c1.03,1.25,1.81,2.7,2.28,4.25l16.9,55.72c2.79,9.21,5.84,18.33,9.06,27.4
		c6.22,17.47,17.86,55.75,15.06,91.07c-0.06,0.72-1.11,0.76-1.21,0.05c-1.75-12.03-7.19-43.2-20.28-75.44
		c0,0-19.84-55.13-25.15-102.33C107.55,390.28,109.6,389.41,110.65,390.68z" fill="#333333"></path>
	<path class="st0" d="M109.2,421.95c-0.4-1.91-3.08-2-3.59-0.12c-3.95,14.58-12.07,48.22-12.34,79.11c0,0,0.35,26.77,4.58,36.98
		l16.37,40.01c1.49,3.63,6.51,3.99,8.45,0.58c1.84-3.24,3.67-7.38,4.51-12.06c0,0,4.02-16.2,6.2-32.82
		c1.77-13.52,0.33-27.27-4.02-40.19C123.78,476.85,114.61,447.92,109.2,421.95z" fill="#333333"></path>
	<path class="st0" d="M88.99,471.32L88.99,471.32c-1.81,5.35-3.16,14.33-3.01,19.98l1.21,45.19c0.34,12.58,2.63,25.02,6.86,36.87
		c3.18,8.91,7.33,19.06,11.97,26.71c0.59,0.96,2.06,0.67,2.23-0.45c0.68-4.34,1.71-12.41,1.22-18.75c-0.43-5.56-5.6-18.67-9.58-28.1
		c-4.2-9.94-7.08-20.37-8.44-31.07c-1.41-11.15-2.31-25.87-0.64-41.55l0.94-8.2C91.94,470.25,89.53,469.71,88.99,471.32z" fill="#333333"></path>
	<path class="st0" d="M138.99,524.65c3.73,13.58,11.72,44.76,11.54,62.33c-0.05,4.9-1.92,9.6-5.22,13.22l-4.87,5.35
		c-2.24,2.46-6.19,2.66-8.46,0.22c-1.02-1.1-2-2.74-2.8-5.12c-0.95-2.86-1.43-6.37-1.63-9.89c-0.45-7.95,0.63-15.9,2.84-23.56
		c2.56-8.87,6.41-24.95,6.76-42.33C137.19,523.81,138.71,523.61,138.99,524.65z" fill="#333333"></path>
	<path class="st0" d="M239.35,390.68l-0.43,0.52c-1.03,1.25-1.81,2.7-2.28,4.25l-16.9,55.72c-2.79,9.21-5.84,18.33-9.06,27.4
		c-6.22,17.47-17.86,55.75-15.06,91.07c0.06,0.72,1.11,0.76,1.21,0.05c1.75-12.03,7.19-43.2,20.28-75.44
		c0,0,19.84-55.13,25.15-102.33C242.45,390.28,240.4,389.41,239.35,390.68z" fill="#333333"></path>
	<path class="st0" d="M240.8,421.95c0.4-1.91,3.08-2,3.59-0.12c3.95,14.58,12.07,48.22,12.34,79.11c0,0-0.35,26.77-4.58,36.98
		l-16.37,40.01c-1.49,3.63-6.51,3.99-8.45,0.58c-1.84-3.24-3.67-7.38-4.51-12.06c0,0-4.02-16.2-6.2-32.82
		c-1.77-13.52-0.33-27.27,4.02-40.19C226.22,476.85,235.39,447.92,240.8,421.95z" fill="#333333"></path>
	<path class="st0" d="M261.01,471.32L261.01,471.32c1.81,5.35,3.16,14.33,3.01,19.98l-1.21,45.19c-0.34,12.58-2.63,25.02-6.86,36.87
		c-3.18,8.91-7.33,19.06-11.97,26.71c-0.59,0.96-2.06,0.67-2.23-0.45c-0.68-4.34-1.71-12.41-1.22-18.75
		c0.43-5.56,5.6-18.67,9.58-28.1c4.2-9.94,7.08-20.37,8.44-31.07c1.41-11.15,2.31-25.87,0.64-41.55l-0.94-8.2
		C258.06,470.25,260.47,469.71,261.01,471.32z" fill="#333333"></path>
	<path class="st0" d="M211.01,524.65c-3.73,13.58-11.72,44.76-11.54,62.33c0.05,4.9,1.92,9.6,5.22,13.22l4.87,5.35
		c2.24,2.46,6.19,2.66,8.46,0.22c1.02-1.1,2-2.74,2.8-5.12c0.95-2.86,1.43-6.37,1.63-9.89c0.45-7.95-0.63-15.9-2.84-23.56
		c-2.56-8.87-6.41-24.95-6.76-42.33C212.81,523.81,211.29,523.61,211.01,524.65z" fill="#333333"></path>
</g>
<g id="Abbs">
	<path class="st0" d="M171.31,261.14c0.06-3.95-0.24-11.39-2.94-17.24c-0.84-1.82-2.82-2.83-4.8-2.51l-15.2,2.42
		c-4.26,0.68-8.24,2.83-10.82,6.29c-1.54,2.06-2.69,4.69-2.61,7.9l0.73,21.96c0.09,2.59,3.02,4.04,5.12,2.54
		c5.92-4.25,16.53-11.46,28.04-17.41C170.32,264.33,171.28,262.82,171.31,261.14z" fill="#333333"></path>
	<path class="st0" d="M172.28,278.49v18.99c0,3.02-1.13,5.99-3.34,8.05c-1.04,0.97-2.3,1.73-3.7,1.81c0,0-10.2,0.19-20.21,3.03
		c-3.34,0.95-6.94-0.43-8.82-3.36c-1.21-1.88-2.09-4.39-1.82-7.63c0.15-1.83,0.94-3.54,2.16-4.91c4.61-5.17,18.22-19.7,27.76-22.23
		C168.34,271.18,172.28,274.32,172.28,278.49z" fill="#333333"></path>
	<path class="st0" d="M134.94,331.3c0,2.67,0.81,5.33,2.53,7.37c1.72,2.04,4.56,3.89,9.21,3.89h12.91c2.25,0,4.5-0.33,6.61-1.1
		c2.88-1.05,6.07-3.03,6.07-6.65V318.7c0,0,0-8.03-8.22-8.03c0,0-29.12,1.61-29.12,12.17V331.3z" fill="#333333"></path>
	<path class="st0" d="M135.46,350.2c2.11,15.72,11.01,71.92,31.81,86.7c2.1,1.49,5.01-0.11,5.01-2.68v-74.38c0-2-0.85-3.94-2.4-5.21
		c-1.4-1.15-3.06-2.93-3.89-5.35c-0.63-1.83-2.41-3.02-4.34-2.89c-4.97,0.33-14.06,0.74-22.65,0.1
		C136.9,346.33,135.17,348.11,135.46,350.2z" fill="#333333"></path>
	<path class="st0" d="M113.83,264.06c3.05-1.9,9.5-6.1,12.53-9.49c0.67-0.75,1.89-0.47,2.13,0.51c0.69,2.86,1.53,7.58,0.77,11.31
		c-0.61,3.01-3.52,4.92-6.53,4.29c-2.64-0.55-6.27-1.72-9.12-4.17C112.84,265.85,112.96,264.6,113.83,264.06z" fill="#333333"></path>
	<path class="st0" d="M114.76,272.02c2.13,1.43,6.06,3.7,10.27,4.26c1.88,0.25,3.38,1.69,3.59,3.58c0.25,2.25,0.46,5.26,0.29,7.98
		c-0.15,2.27-2.38,3.8-4.53,3.04c-6.17-2.17-17.71-7.17-17.07-14.06c0,0,0.32-2.92,3.16-4.83
		C111.76,271.12,113.46,271.15,114.76,272.02z" fill="#333333"></path>
	<path class="st0" d="M110.97,288.14l17.36,9.6c0.75,0.42,1.22,1.21,1.22,2.07v14.12c0,1.95-2.24,3.07-3.79,1.89l-15.27-11.54
		c-1.49-1.13-2.51-2.75-2.88-4.58c-0.5-2.48-0.92-6.2-0.11-10C107.84,288.16,109.59,287.37,110.97,288.14z" fill="#333333"></path>
	<path class="st0" d="M112.09,310.71l14.54,11.39c1.54,1.21,2.44,3.06,2.44,5.01v4.97c0,4.08-4.81,6.25-7.87,3.56l-11.74-10.33
		c-1.45-1.27-2.27-3.1-2.27-5.03v-7.18C107.18,310.57,110.1,309.15,112.09,310.71z" fill="#333333"></path>
	<path class="st0" d="M103.83,330.73c0.47-2.35,3.31-3.31,5.12-1.74l12.38,10.76c0,0,10.33,8.92,10.33,27.47v19.88
		c0,5.39-6.57,8.03-10.3,4.15l-15.81-16.45c-2.21-2.3-3.22-5.52-2.68-8.66c0.34-1.97,1-4.01,2.25-5.27c2.1-2.1,1.87-5.2,0.68-7.54
		c-1.73-3.4-2.91-7.05-2.99-10.86C102.74,339.2,102.94,335.16,103.83,330.73z" fill="#333333"></path>
	<path class="st0" d="M178.69,261.14c-0.06-3.95,0.24-11.39,2.94-17.24c0.84-1.82,2.82-2.83,4.8-2.51l15.2,2.42
		c4.26,0.68,8.24,2.83,10.82,6.29c1.54,2.06,2.69,4.69,2.61,7.9l-0.73,21.96c-0.09,2.59-3.02,4.04-5.12,2.54
		c-5.92-4.25-16.53-11.46-28.04-17.41C179.68,264.33,178.72,262.82,178.69,261.14z" fill="#333333"></path>
	<path class="st0" d="M177.72,278.49v18.99c0,3.02,1.13,5.99,3.34,8.05c1.04,0.97,2.3,1.73,3.7,1.81c0,0,10.2,0.19,20.21,3.03
		c3.34,0.95,6.94-0.43,8.82-3.36c1.21-1.88,2.09-4.39,1.82-7.63c-0.15-1.83-0.94-3.54-2.16-4.91c-4.61-5.17-18.22-19.7-27.76-22.23
		C181.66,271.18,177.72,274.32,177.72,278.49z" fill="#333333"></path>
	<path class="st0" d="M215.06,331.3c0,2.67-0.81,5.33-2.53,7.37c-1.72,2.04-4.56,3.89-9.21,3.89h-12.91c-2.25,0-4.5-0.33-6.61-1.1
		c-2.88-1.05-6.07-3.03-6.07-6.65V318.7c0,0,0-8.03,8.22-8.03c0,0,29.12,1.61,29.12,12.17V331.3z" fill="#333333"></path>
	<path class="st0" d="M214.54,350.2c-2.11,15.72-11.01,71.92-31.81,86.7c-2.1,1.49-5.01-0.11-5.01-2.68v-74.38
		c0-2,0.85-3.94,2.4-5.21c1.4-1.15,3.06-2.93,3.88-5.35c0.63-1.83,2.41-3.02,4.34-2.89c4.97,0.33,14.06,0.74,22.65,0.1
		C213.1,346.33,214.83,348.11,214.54,350.2z" fill="#333333"></path>
	<path class="st0" d="M236.17,264.06c-3.05-1.9-9.5-6.1-12.53-9.49c-0.67-0.75-1.89-0.47-2.13,0.51c-0.69,2.86-1.53,7.58-0.77,11.31
		c0.61,3.01,3.52,4.92,6.53,4.29c2.64-0.55,6.27-1.72,9.12-4.17C237.16,265.85,237.04,264.6,236.17,264.06z" fill="#333333"></path>
	<path class="st0" d="M235.24,272.02c-2.13,1.43-6.06,3.7-10.27,4.26c-1.88,0.25-3.38,1.69-3.59,3.58
		c-0.25,2.25-0.46,5.26-0.29,7.98c0.15,2.27,2.38,3.8,4.53,3.04c6.17-2.17,17.71-7.17,17.07-14.06c0,0-0.32-2.92-3.16-4.83
		C238.24,271.12,236.54,271.15,235.24,272.02z" fill="#333333"></path>
	<path class="st0" d="M239.03,288.14l-17.36,9.6c-0.75,0.42-1.22,1.21-1.22,2.07v14.12c0,1.95,2.24,3.07,3.79,1.89l15.27-11.54
		c1.49-1.13,2.51-2.75,2.88-4.58c0.5-2.48,0.92-6.2,0.11-10C242.16,288.16,240.41,287.37,239.03,288.14z" fill="#333333"></path>
	<path class="st0" d="M237.91,310.71l-14.54,11.39c-1.54,1.21-2.44,3.06-2.44,5.01v4.97c0,4.08,4.81,6.25,7.87,3.56l11.74-10.33
		c1.45-1.27,2.27-3.1,2.27-5.03v-7.18C242.82,310.57,239.9,309.15,237.91,310.71z" fill="#333333"></path>
	<path class="st0" d="M246.17,330.73c-0.47-2.35-3.31-3.31-5.12-1.74l-12.38,10.76c0,0-10.33,8.92-10.33,27.47v19.88
		c0,5.39,6.57,8.03,10.3,4.15l15.81-16.45c2.21-2.3,3.22-5.52,2.68-8.66c-0.34-1.97-1-4.01-2.25-5.27c-2.1-2.1-1.87-5.2-0.68-7.54
		c1.73-3.4,2.91-7.05,2.99-10.86C247.26,339.2,247.06,335.16,246.17,330.73z" fill="#333333"></path>
</g>
</svg>